<svg width="589" height="14" viewBox="0 0 589 14" fill="none" xmlns="http://www.w3.org/2000/svg">
<path d="M5.90141 3.29102C5.85501 2.85683 5.65946 2.51876 5.31476 2.27681C4.97338 2.03486 4.52925 1.91388 3.98238 1.91388C3.59791 1.91388 3.26813 1.97189 2.99303 2.08789C2.71794 2.20389 2.50747 2.36133 2.36164 2.56019C2.21581 2.75906 2.14123 2.98609 2.13792 3.2413C2.13792 3.45342 2.18598 3.63737 2.28209 3.79315C2.38153 3.94892 2.51576 4.0815 2.68479 4.19087C2.85383 4.29693 3.04109 4.38642 3.24658 4.45934C3.45207 4.53226 3.65922 4.59357 3.86803 4.64329L4.82258 4.88192C5.20705 4.97141 5.5766 5.09239 5.93124 5.24485C6.2892 5.39731 6.60903 5.58955 6.89076 5.82156C7.1758 6.05356 7.40117 6.33363 7.56689 6.66175C7.73261 6.98988 7.81547 7.37435 7.81547 7.81516C7.81547 8.41175 7.66301 8.93709 7.35809 9.39116C7.05316 9.84192 6.61235 10.1949 6.03564 10.4501C5.46225 10.702 4.76789 10.8279 3.95255 10.8279C3.16041 10.8279 2.47267 10.7053 1.88934 10.46C1.30932 10.2148 0.855247 9.85683 0.527122 9.38619C0.202311 8.91554 0.0266483 8.34215 0.000133187 7.66602H1.81476C1.84128 8.02066 1.95065 8.31564 2.14289 8.55096C2.33512 8.78628 2.58536 8.96194 2.8936 9.07795C3.20515 9.19395 3.55316 9.25195 3.93763 9.25195C4.33868 9.25195 4.69 9.19229 4.99161 9.07298C5.29653 8.95034 5.53517 8.78131 5.70752 8.56587C5.87987 8.34712 5.9677 8.09192 5.97101 7.80025C5.9677 7.5351 5.88981 7.31635 5.73735 7.144C5.58489 6.96834 5.37111 6.8225 5.09601 6.7065C4.82423 6.58718 4.50605 6.48112 4.14147 6.38832L2.98309 6.09002C2.14455 5.87459 1.48167 5.54812 0.994451 5.11062C0.51055 4.6698 0.268599 4.08481 0.268599 3.35565C0.268599 2.75574 0.431004 2.23041 0.755815 1.77965C1.08394 1.32889 1.52973 0.979226 2.09317 0.730646C2.65662 0.478752 3.29464 0.352805 4.00724 0.352805C4.72977 0.352805 5.36282 0.478752 5.90638 0.730646C6.45326 0.979226 6.88247 1.32558 7.19403 1.76971C7.50558 2.21052 7.66633 2.71763 7.67627 3.29102H5.90141ZM12.761 10.823C11.9953 10.823 11.3341 10.6639 10.7773 10.3457C10.2238 10.0242 9.7979 9.57013 9.4996 8.98349C9.20131 8.39352 9.05216 7.69916 9.05216 6.90039C9.05216 6.11488 9.20131 5.42549 9.4996 4.83221C9.80121 4.23562 10.2221 3.7716 10.7624 3.44016C11.3026 3.10541 11.9373 2.93803 12.6665 2.93803C13.1371 2.93803 13.5813 3.01426 13.9989 3.16673C14.4198 3.31587 14.791 3.54788 15.1125 3.86275C15.4373 4.17762 15.6925 4.57866 15.8782 5.06587C16.0638 5.54978 16.1566 6.12648 16.1566 6.79599V7.34783H9.89733V6.13477H14.4314C14.4281 5.79007 14.3535 5.48349 14.2077 5.21502C14.0619 4.94324 13.858 4.72946 13.5962 4.57369C13.3377 4.41791 13.0361 4.34002 12.6914 4.34002C12.3235 4.34002 12.0003 4.42951 11.7219 4.60849C11.4435 4.78415 11.2264 5.01616 11.0706 5.30451C10.9182 5.58955 10.8403 5.90276 10.837 6.24414V7.30309C10.837 7.74722 10.9182 8.12837 11.0806 8.44656C11.243 8.76142 11.47 9.00337 11.7617 9.17241C12.0533 9.33813 12.3947 9.42099 12.7858 9.42099C13.0477 9.42099 13.2846 9.38453 13.4968 9.31161C13.7089 9.23538 13.8928 9.12435 14.0486 8.97852C14.2044 8.83268 14.322 8.65205 14.4016 8.43661L16.082 8.62553C15.9759 9.06966 15.7737 9.45745 15.4755 9.78888C15.1805 10.117 14.8026 10.3722 14.3419 10.5545C13.8812 10.7335 13.3542 10.823 12.761 10.823ZM21.0101 10.823C20.2478 10.823 19.5932 10.6556 19.0463 10.3208C18.5027 9.98609 18.0835 9.52373 17.7885 8.93377C17.4968 8.34049 17.351 7.65773 17.351 6.88548C17.351 6.10991 17.5001 5.42549 17.7984 4.83221C18.0967 4.23562 18.5177 3.7716 19.0612 3.44016C19.6081 3.10541 20.2544 2.93803 21.0001 2.93803C21.6199 2.93803 22.1685 3.05238 22.6457 3.28107C23.1263 3.50645 23.5091 3.82629 23.7942 4.24059C24.0792 4.65157 24.2416 5.13216 24.2814 5.68235H22.5612C22.4916 5.31445 22.3259 5.00787 22.0641 4.76261C21.8055 4.51403 21.4592 4.38974 21.025 4.38974C20.6571 4.38974 20.3339 4.48917 20.0555 4.68803C19.7771 4.88358 19.56 5.16531 19.4043 5.5332C19.2518 5.9011 19.1756 6.34192 19.1756 6.85565C19.1756 7.37601 19.2518 7.82345 19.4043 8.19798C19.5567 8.56919 19.7705 8.85588 20.0456 9.05806C20.324 9.25692 20.6505 9.35636 21.025 9.35636C21.2901 9.35636 21.5271 9.30664 21.7359 9.20721C21.9481 9.10446 22.1254 8.95697 22.2679 8.76474C22.4104 8.5725 22.5082 8.33884 22.5612 8.06374H24.2814C24.2383 8.60399 24.0792 9.08292 23.8041 9.50053C23.529 9.91483 23.1545 10.2396 22.6805 10.475C22.2066 10.707 21.6498 10.823 21.0101 10.823ZM29.5724 3.03746V4.42951H25.1825V3.03746H29.5724ZM26.2663 1.20792H28.066V8.37695C28.066 8.6189 28.1025 8.80451 28.1754 8.93377C28.2516 9.05972 28.351 9.14589 28.4737 9.19229C28.5963 9.2387 28.7322 9.2619 28.8813 9.2619C28.994 9.2619 29.0968 9.25361 29.1896 9.23704C29.2857 9.22047 29.3586 9.20555 29.4083 9.19229L29.7116 10.5993C29.6155 10.6324 29.4779 10.6689 29.299 10.7086C29.1233 10.7484 28.9079 10.7716 28.6527 10.7782C28.2019 10.7915 27.7959 10.7235 27.4346 10.5744C27.0733 10.4219 26.7867 10.1866 26.5745 9.86843C26.3657 9.55025 26.263 9.15252 26.2663 8.67525V1.20792ZM31.0775 10.6738V3.03746H32.8773V10.6738H31.0775ZM31.9824 1.95366C31.6973 1.95366 31.4521 1.8592 31.2466 1.67028C31.0411 1.47804 30.9383 1.24769 30.9383 0.979225C30.9383 0.707445 31.0411 0.477095 31.2466 0.288174C31.4521 0.0959394 31.6973 -0.00017786 31.9824 -0.00017786C32.2707 -0.00017786 32.516 0.0959394 32.7182 0.288174C32.9237 0.477095 33.0264 0.707445 33.0264 0.979225C33.0264 1.24769 32.9237 1.47804 32.7182 1.67028C32.516 1.8592 32.2707 1.95366 31.9824 1.95366ZM38.0589 10.823C37.3132 10.823 36.6669 10.6589 36.12 10.3308C35.5731 10.0027 35.1489 9.54362 34.8473 8.95366C34.549 8.3637 34.3998 7.6743 34.3998 6.88548C34.3998 6.09665 34.549 5.4056 34.8473 4.81232C35.1489 4.21905 35.5731 3.75834 36.12 3.43022C36.6669 3.1021 37.3132 2.93803 38.0589 2.93803C38.8046 2.93803 39.4509 3.1021 39.9978 3.43022C40.5447 3.75834 40.9673 4.21905 41.2656 4.81232C41.5672 5.4056 41.718 6.09665 41.718 6.88548C41.718 7.6743 41.5672 8.3637 41.2656 8.95366C40.9673 9.54362 40.5447 10.0027 39.9978 10.3308C39.4509 10.6589 38.8046 10.823 38.0589 10.823ZM38.0688 9.38121C38.4732 9.38121 38.8113 9.27018 39.0831 9.04812C39.3548 8.82274 39.557 8.52113 39.6896 8.14329C39.8255 7.76545 39.8934 7.34452 39.8934 6.8805C39.8934 6.41317 39.8255 5.99059 39.6896 5.61275C39.557 5.23159 39.3548 4.92833 39.0831 4.70295C38.8113 4.47757 38.4732 4.36488 38.0688 4.36488C37.6545 4.36488 37.3099 4.47757 37.0348 4.70295C36.763 4.92833 36.5591 5.23159 36.4233 5.61275C36.2907 5.99059 36.2244 6.41317 36.2244 6.8805C36.2244 7.34452 36.2907 7.76545 36.4233 8.14329C36.5591 8.52113 36.763 8.82274 37.0348 9.04812C37.3099 9.27018 37.6545 9.38121 38.0688 9.38121ZM45.0452 6.1994V10.6738H43.2455V3.03746H44.9657V4.33505H45.0552C45.2308 3.90749 45.5109 3.56777 45.8954 3.31587C46.2832 3.06398 46.7621 2.93803 47.3322 2.93803C47.8592 2.93803 48.3182 3.05072 48.7093 3.2761C49.1037 3.50148 49.4086 3.82795 49.6241 4.2555C49.8428 4.68306 49.9505 5.20176 49.9472 5.81161V10.6738H48.1475V6.09002C48.1475 5.5796 48.0149 5.18022 47.7498 4.89187C47.4879 4.60352 47.125 4.45934 46.661 4.45934C46.3461 4.45934 46.0661 4.52894 45.8208 4.66815C45.5789 4.80404 45.3883 5.00124 45.2491 5.25977C45.1132 5.51829 45.0452 5.8315 45.0452 6.1994ZM58.993 10.8677C58.1744 10.8677 57.4717 10.6606 56.8851 10.2463C56.3017 9.82866 55.8526 9.2271 55.5378 8.44158C55.2262 7.65276 55.0704 6.70318 55.0704 5.59286C55.0738 4.48254 55.2312 3.53794 55.5427 2.75906C55.8576 1.97686 56.3067 1.38027 56.89 0.969283C57.4767 0.558298 58.1777 0.352805 58.993 0.352805C59.8084 0.352805 60.5094 0.558298 61.096 0.969283C61.6827 1.38027 62.1318 1.97686 62.4433 2.75906C62.7582 3.54125 62.9156 4.48585 62.9156 5.59286C62.9156 6.7065 62.7582 7.65773 62.4433 8.44656C62.1318 9.23207 61.6827 9.83197 61.096 10.2463C60.5127 10.6606 59.8117 10.8677 58.993 10.8677ZM58.993 9.31161C59.6294 9.31161 60.1315 8.9984 60.4994 8.37198C60.8706 7.74225 61.0562 6.81587 61.0562 5.59286C61.0562 4.78415 60.9717 4.1047 60.8027 3.55451C60.6337 3.00432 60.395 2.59002 60.0868 2.31161C59.7785 2.02989 59.414 1.88903 58.993 1.88903C58.36 1.88903 57.8595 2.20389 57.4916 2.83363C57.1237 3.46005 56.9381 4.37979 56.9348 5.59286C56.9315 6.40489 57.0127 7.08765 57.1784 7.64116C57.3474 8.19466 57.5861 8.61228 57.8943 8.894C58.2025 9.17241 58.5688 9.31161 58.993 9.31161ZM68.1072 10.813C67.4443 10.813 66.851 10.6887 66.3274 10.4402C65.8037 10.1883 65.3877 9.84357 65.0795 9.40607C64.7746 8.96857 64.6122 8.4681 64.5923 7.90465H66.3821C66.4152 8.32227 66.5958 8.66365 66.924 8.9288C67.2521 9.19064 67.6465 9.32156 68.1072 9.32156C68.4685 9.32156 68.79 9.2387 69.0717 9.07298C69.3534 8.90726 69.5755 8.67691 69.7379 8.38192C69.9003 8.08694 69.9798 7.75053 69.9765 7.37269C69.9798 6.98822 69.8986 6.64684 69.7329 6.34854C69.5672 6.05025 69.3402 5.81658 69.0518 5.64755C68.7635 5.4752 68.432 5.38903 68.0575 5.38903C67.7526 5.38571 67.4526 5.44206 67.1576 5.55806C66.8626 5.67406 66.629 5.82653 66.4566 6.01545L64.7911 5.74201L65.3231 0.49201H71.2294V2.0332H66.8494L66.5561 4.73278H66.6157C66.8046 4.51071 67.0715 4.32676 67.4161 4.18093C67.7608 4.03178 68.1387 3.95721 68.5497 3.95721C69.1661 3.95721 69.7163 4.10304 70.2002 4.39471C70.6841 4.68306 71.0653 5.08079 71.3437 5.58789C71.6221 6.09499 71.7613 6.67501 71.7613 7.32795C71.7613 8.00077 71.6055 8.60067 71.294 9.12766C70.9858 9.65134 70.5565 10.064 70.0063 10.3656C69.4595 10.6639 68.8264 10.813 68.1072 10.813ZM74.5554 9.45082C74.2537 9.45082 73.9952 9.34476 73.7798 9.13263C73.5643 8.9172 73.4583 8.65868 73.4616 8.35707C73.4583 8.05877 73.5643 7.80356 73.7798 7.59144C73.9952 7.37932 74.2537 7.27326 74.5554 7.27326C74.847 7.27326 75.1006 7.37932 75.316 7.59144C75.5348 7.80356 75.6458 8.05877 75.6491 8.35707C75.6458 8.55924 75.5928 8.74319 75.49 8.90891C75.3906 9.07463 75.258 9.20721 75.0923 9.30664C74.9299 9.40276 74.7509 9.45082 74.5554 9.45082ZM74.5554 4.40465C74.2537 4.40465 73.9952 4.29859 73.7798 4.08647C73.5643 3.87103 73.4583 3.61251 73.4616 3.3109C73.4583 3.01261 73.5643 2.7574 73.7798 2.54528C73.9952 2.32984 74.2537 2.22212 74.5554 2.22212C74.847 2.22212 75.1006 2.32984 75.316 2.54528C75.5348 2.7574 75.6458 3.01261 75.6491 3.3109C75.6458 3.50977 75.5928 3.69206 75.49 3.85778C75.3906 4.0235 75.258 4.15607 75.0923 4.2555C74.9299 4.35494 74.7509 4.40465 74.5554 4.40465ZM87.4778 0.49201H89.3222V7.144C89.3222 7.87317 89.1499 8.5145 88.8052 9.068C88.4638 9.62151 87.9832 10.054 87.3634 10.3656C86.7436 10.6738 86.0194 10.8279 85.1908 10.8279C84.3589 10.8279 83.6331 10.6738 83.0133 10.3656C82.3935 10.054 81.9129 9.62151 81.5715 9.068C81.2301 8.5145 81.0594 7.87317 81.0594 7.144V0.49201H82.9039V6.98988C82.9039 7.41412 82.9967 7.79196 83.1823 8.1234C83.3712 8.45484 83.6364 8.71502 83.9778 8.90394C84.3191 9.08955 84.7235 9.18235 85.1908 9.18235C85.6582 9.18235 86.0625 9.08955 86.4039 8.90394C86.7486 8.71502 87.0137 8.45484 87.1994 8.1234C87.385 7.79196 87.4778 7.41412 87.4778 6.98988V0.49201ZM97.283 5.05593L95.6424 5.23491C95.596 5.06919 95.5148 4.91341 95.3987 4.76758C95.2861 4.62174 95.1336 4.50408 94.9414 4.41459C94.7491 4.32511 94.5138 4.28036 94.2354 4.28036C93.8609 4.28036 93.546 4.36156 93.2908 4.52397C93.0389 4.68638 92.9146 4.89684 92.9179 5.15536C92.9146 5.37743 92.9958 5.55806 93.1615 5.69727C93.3306 5.83647 93.609 5.95082 93.9968 6.04031L95.2993 6.31871C96.0219 6.47449 96.5588 6.72141 96.9101 7.05948C97.2648 7.39755 97.4437 7.84002 97.447 8.3869C97.4437 8.86748 97.3029 9.29173 97.0245 9.65962C96.7494 10.0242 96.3666 10.3092 95.876 10.5147C95.3855 10.7202 94.822 10.823 94.1857 10.823C93.251 10.823 92.4987 10.6274 91.9286 10.2363C91.3585 9.84192 91.0188 9.29338 90.9094 8.59073L92.6644 8.4217C92.7439 8.76639 92.913 9.02657 93.1715 9.20224C93.43 9.3779 93.7664 9.46573 94.1807 9.46573C94.6083 9.46573 94.9513 9.3779 95.2098 9.20224C95.4717 9.02657 95.6026 8.80948 95.6026 8.55096C95.6026 8.33221 95.5181 8.15157 95.349 8.00906C95.1833 7.86654 94.9248 7.75716 94.5735 7.68093L93.2709 7.40749C92.5384 7.25503 91.9965 6.99817 91.6452 6.6369C91.2939 6.27231 91.1199 5.81161 91.1232 5.25479C91.1199 4.78415 91.2475 4.37648 91.506 4.03178C91.7678 3.68377 92.1308 3.41531 92.5948 3.22638C93.0621 3.03415 93.6007 2.93803 94.2105 2.93803C95.1054 2.93803 95.8097 3.12861 96.3235 3.50977C96.8405 3.89092 97.1603 4.40631 97.283 5.05593ZM102.312 10.823C101.546 10.823 100.885 10.6639 100.328 10.3457C99.7746 10.0242 99.3487 9.57013 99.0504 8.98349C98.7521 8.39352 98.6029 7.69916 98.6029 6.90039C98.6029 6.11488 98.7521 5.42549 99.0504 4.83221C99.352 4.23562 99.7729 3.7716 100.313 3.44016C100.853 3.10541 101.488 2.93803 102.217 2.93803C102.688 2.93803 103.132 3.01426 103.55 3.16673C103.971 3.31587 104.342 3.54788 104.663 3.86275C104.988 4.17762 105.243 4.57866 105.429 5.06587C105.615 5.54978 105.707 6.12648 105.707 6.79599V7.34783H99.4481V6.13477H103.982C103.979 5.79007 103.904 5.48349 103.758 5.21502C103.613 4.94324 103.409 4.72946 103.147 4.57369C102.888 4.41791 102.587 4.34002 102.242 4.34002C101.874 4.34002 101.551 4.42951 101.273 4.60849C100.994 4.78415 100.777 5.01616 100.621 5.30451C100.469 5.58955 100.391 5.90276 100.388 6.24414V7.30309C100.388 7.74722 100.469 8.12837 100.631 8.44656C100.794 8.76142 101.021 9.00337 101.312 9.17241C101.604 9.33813 101.946 9.42099 102.337 9.42099C102.598 9.42099 102.835 9.38453 103.048 9.31161C103.26 9.23538 103.444 9.12435 103.599 8.97852C103.755 8.83268 103.873 8.65205 103.952 8.43661L105.633 8.62553C105.527 9.06966 105.325 9.45745 105.026 9.78888C104.731 10.117 104.353 10.3722 103.893 10.5545C103.432 10.7335 102.905 10.823 102.312 10.823ZM107.23 10.6738V3.03746H108.975V4.31019H109.054C109.194 3.86938 109.432 3.52965 109.77 3.29102C110.112 3.04906 110.501 2.92809 110.939 2.92809C111.038 2.92809 111.149 2.93306 111.272 2.943C111.398 2.94963 111.502 2.96123 111.585 2.97781V4.63334C111.509 4.60683 111.388 4.58363 111.222 4.56374C111.06 4.54054 110.902 4.52894 110.75 4.52894C110.422 4.52894 110.127 4.6002 109.865 4.74272C109.606 4.88192 109.402 5.07582 109.253 5.3244C109.104 5.57298 109.03 5.85967 109.03 6.18448V10.6738H107.23ZM116.333 10.6738V0.49201H120.151C120.933 0.49201 121.59 0.6279 122.12 0.89968C122.653 1.17146 123.056 1.55262 123.328 2.04315C123.603 2.53036 123.741 3.09878 123.741 3.7484C123.741 4.40134 123.601 4.9681 123.323 5.44869C123.048 5.92596 122.642 6.29551 122.105 6.55735C121.568 6.81587 120.908 6.94513 120.126 6.94513H117.407V5.41388H119.878C120.335 5.41388 120.71 5.35091 121.001 5.22496C121.293 5.0957 121.508 4.90844 121.648 4.66317C121.79 4.41459 121.861 4.10967 121.861 3.7484C121.861 3.38713 121.79 3.07889 121.648 2.82369C121.505 2.56516 121.288 2.36961 120.996 2.23704C120.705 2.10115 120.328 2.0332 119.868 2.0332H118.177V10.6738H116.333ZM121.593 6.06019L124.113 10.6738H122.055L119.579 6.06019H121.593ZM128.63 10.823C127.864 10.823 127.203 10.6639 126.646 10.3457C126.093 10.0242 125.667 9.57013 125.369 8.98349C125.07 8.39352 124.921 7.69916 124.921 6.90039C124.921 6.11488 125.07 5.42549 125.369 4.83221C125.67 4.23562 126.091 3.7716 126.632 3.44016C127.172 3.10541 127.806 2.93803 128.536 2.93803C129.006 2.93803 129.45 3.01426 129.868 3.16673C130.289 3.31587 130.66 3.54788 130.982 3.86275C131.306 4.17762 131.562 4.57866 131.747 5.06587C131.933 5.54978 132.026 6.12648 132.026 6.79599V7.34783H125.766V6.13477H130.301C130.297 5.79007 130.223 5.48349 130.077 5.21502C129.931 4.94324 129.727 4.72946 129.465 4.57369C129.207 4.41791 128.905 4.34002 128.561 4.34002C128.193 4.34002 127.869 4.42951 127.591 4.60849C127.313 4.78415 127.096 5.01616 126.94 5.30451C126.787 5.58955 126.709 5.90276 126.706 6.24414V7.30309C126.706 7.74722 126.787 8.12837 126.95 8.44656C127.112 8.76142 127.339 9.00337 127.631 9.17241C127.922 9.33813 128.264 9.42099 128.655 9.42099C128.917 9.42099 129.154 9.38453 129.366 9.31161C129.578 9.23538 129.762 9.12435 129.918 8.97852C130.074 8.83268 130.191 8.65205 130.271 8.43661L131.951 8.62553C131.845 9.06966 131.643 9.45745 131.345 9.78888C131.05 10.117 130.672 10.3722 130.211 10.5545C129.75 10.7335 129.223 10.823 128.63 10.823ZM139.584 5.05593L137.943 5.23491C137.897 5.06919 137.816 4.91341 137.7 4.76758C137.587 4.62174 137.434 4.50408 137.242 4.41459C137.05 4.32511 136.815 4.28036 136.536 4.28036C136.162 4.28036 135.847 4.36156 135.592 4.52397C135.34 4.68638 135.215 4.89684 135.219 5.15536C135.215 5.37743 135.297 5.55806 135.462 5.69727C135.631 5.83647 135.91 5.95082 136.298 6.04031L137.6 6.31871C138.323 6.47449 138.86 6.72141 139.211 7.05948C139.566 7.39755 139.745 7.84002 139.748 8.3869C139.745 8.86748 139.604 9.29173 139.325 9.65962C139.05 10.0242 138.667 10.3092 138.177 10.5147C137.686 10.7202 137.123 10.823 136.486 10.823C135.552 10.823 134.799 10.6274 134.229 10.2363C133.659 9.84192 133.32 9.29338 133.21 8.59073L134.965 8.4217C135.045 8.76639 135.214 9.02657 135.472 9.20224C135.731 9.3779 136.067 9.46573 136.481 9.46573C136.909 9.46573 137.252 9.3779 137.511 9.20224C137.772 9.02657 137.903 8.80948 137.903 8.55096C137.903 8.33221 137.819 8.15157 137.65 8.00906C137.484 7.86654 137.226 7.75716 136.874 7.68093L135.572 7.40749C134.839 7.25503 134.297 6.99817 133.946 6.6369C133.595 6.27231 133.421 5.81161 133.424 5.25479C133.421 4.78415 133.548 4.37648 133.807 4.03178C134.069 3.68377 134.432 3.41531 134.896 3.22638C135.363 3.03415 135.901 2.93803 136.511 2.93803C137.406 2.93803 138.111 3.12861 138.624 3.50977C139.141 3.89092 139.461 4.40631 139.584 5.05593ZM144.613 10.823C143.847 10.823 143.186 10.6639 142.629 10.3457C142.075 10.0242 141.649 9.57013 141.351 8.98349C141.053 8.39352 140.904 7.69916 140.904 6.90039C140.904 6.11488 141.053 5.42549 141.351 4.83221C141.653 4.23562 142.074 3.7716 142.614 3.44016C143.154 3.10541 143.789 2.93803 144.518 2.93803C144.989 2.93803 145.433 3.01426 145.85 3.16673C146.271 3.31587 146.643 3.54788 146.964 3.86275C147.289 4.17762 147.544 4.57866 147.73 5.06587C147.915 5.54978 148.008 6.12648 148.008 6.79599V7.34783H141.749V6.13477H146.283C146.28 5.79007 146.205 5.48349 146.059 5.21502C145.913 4.94324 145.71 4.72946 145.448 4.57369C145.189 4.41791 144.888 4.34002 144.543 4.34002C144.175 4.34002 143.852 4.42951 143.573 4.60849C143.295 4.78415 143.078 5.01616 142.922 5.30451C142.77 5.58955 142.692 5.90276 142.689 6.24414V7.30309C142.689 7.74722 142.77 8.12837 142.932 8.44656C143.095 8.76142 143.322 9.00337 143.613 9.17241C143.905 9.33813 144.246 9.42099 144.637 9.42099C144.899 9.42099 145.136 9.38453 145.348 9.31161C145.56 9.23538 145.744 9.12435 145.9 8.97852C146.056 8.83268 146.174 8.65205 146.253 8.43661L147.934 8.62553C147.827 9.06966 147.625 9.45745 147.327 9.78888C147.032 10.117 146.654 10.3722 146.193 10.5545C145.733 10.7335 145.206 10.823 144.613 10.823ZM151.728 10.8279C151.244 10.8279 150.808 10.7418 150.421 10.5694C150.036 10.3938 149.731 10.1352 149.506 9.79386C149.284 9.45247 149.173 9.03155 149.173 8.53107C149.173 8.1002 149.252 7.7439 149.411 7.46218C149.57 7.18046 149.788 6.95508 150.063 6.78604C150.338 6.61701 150.648 6.48941 150.992 6.40323C151.34 6.31374 151.7 6.24911 152.071 6.20934C152.519 6.16294 152.882 6.12151 153.16 6.08505C153.438 6.04528 153.641 5.98562 153.766 5.90607C153.896 5.82321 153.96 5.69561 153.96 5.52326V5.49343C153.96 5.1189 153.849 4.82889 153.627 4.6234C153.405 4.41791 153.085 4.31516 152.668 4.31516C152.227 4.31516 151.877 4.41128 151.619 4.60352C151.364 4.79575 151.191 5.02279 151.102 5.28462L149.421 5.04599C149.554 4.58197 149.773 4.19419 150.078 3.88263C150.382 3.56777 150.755 3.33245 151.196 3.17667C151.637 3.01758 152.124 2.93803 152.658 2.93803C153.026 2.93803 153.392 2.98112 153.757 3.06729C154.121 3.15347 154.454 3.29599 154.756 3.49485C155.057 3.6904 155.299 3.95721 155.482 4.29528C155.667 4.63334 155.76 5.05593 155.76 5.56303V10.6738H154.03V9.62482H153.97C153.861 9.83694 153.707 10.0358 153.508 10.2214C153.312 10.4037 153.065 10.5512 152.767 10.6639C152.472 10.7733 152.126 10.8279 151.728 10.8279ZM152.195 9.5055C152.557 9.5055 152.87 9.43424 153.135 9.29173C153.4 9.14589 153.604 8.95366 153.747 8.71502C153.892 8.47638 153.965 8.2162 153.965 7.93448V7.03462C153.909 7.08103 153.813 7.12411 153.677 7.16388C153.544 7.20366 153.395 7.23846 153.23 7.26829C153.064 7.29812 152.9 7.32463 152.737 7.34783C152.575 7.37103 152.434 7.39092 152.315 7.40749C152.046 7.44395 151.806 7.50361 151.594 7.58647C151.382 7.66933 151.214 7.78533 151.092 7.93448C150.969 8.08031 150.908 8.26924 150.908 8.50124C150.908 8.83268 151.029 9.08292 151.271 9.25195C151.513 9.42099 151.821 9.5055 152.195 9.5055ZM157.57 10.6738V3.03746H159.315V4.31019H159.394C159.534 3.86938 159.772 3.52965 160.11 3.29102C160.452 3.04906 160.841 2.92809 161.279 2.92809C161.378 2.92809 161.489 2.93306 161.612 2.943C161.738 2.94963 161.842 2.96123 161.925 2.97781V4.63334C161.849 4.60683 161.728 4.58363 161.562 4.56374C161.4 4.54054 161.242 4.52894 161.09 4.52894C160.761 4.52894 160.467 4.6002 160.205 4.74272C159.946 4.88192 159.742 5.07582 159.593 5.3244C159.444 5.57298 159.369 5.85967 159.369 6.18448V10.6738H157.57ZM166.137 10.823C165.375 10.823 164.72 10.6556 164.173 10.3208C163.63 9.98609 163.21 9.52373 162.915 8.93377C162.624 8.34049 162.478 7.65773 162.478 6.88548C162.478 6.10991 162.627 5.42549 162.925 4.83221C163.224 4.23562 163.645 3.7716 164.188 3.44016C164.735 3.10541 165.381 2.93803 166.127 2.93803C166.747 2.93803 167.295 3.05238 167.773 3.28107C168.253 3.50645 168.636 3.82629 168.921 4.24059C169.206 4.65157 169.369 5.13216 169.408 5.68235H167.688C167.619 5.31445 167.453 5.00787 167.191 4.76261C166.932 4.51403 166.586 4.38974 166.152 4.38974C165.784 4.38974 165.461 4.48917 165.182 4.68803C164.904 4.88358 164.687 5.16531 164.531 5.5332C164.379 5.9011 164.303 6.34192 164.303 6.85565C164.303 7.37601 164.379 7.82345 164.531 8.19798C164.684 8.56919 164.897 8.85588 165.173 9.05806C165.451 9.25692 165.777 9.35636 166.152 9.35636C166.417 9.35636 166.654 9.30664 166.863 9.20721C167.075 9.10446 167.252 8.95697 167.395 8.76474C167.537 8.5725 167.635 8.33884 167.688 8.06374H169.408C169.365 8.60399 169.206 9.08292 168.931 9.50053C168.656 9.91483 168.281 10.2396 167.807 10.475C167.334 10.707 166.777 10.823 166.137 10.823ZM172.686 6.1994V10.6738H170.886V0.49201H172.646V4.33505H172.736C172.915 3.90418 173.191 3.56445 173.566 3.31587C173.944 3.06398 174.424 2.93803 175.008 2.93803C175.538 2.93803 176 3.04906 176.395 3.27113C176.789 3.49319 177.094 3.818 177.309 4.24556C177.528 4.67312 177.638 5.19513 177.638 5.81161V10.6738H175.838V6.09002C175.838 5.57629 175.705 5.17691 175.44 4.89187C175.178 4.60352 174.81 4.45934 174.336 4.45934C174.018 4.45934 173.733 4.52894 173.481 4.66815C173.233 4.80404 173.037 5.00124 172.895 5.25977C172.755 5.51829 172.686 5.8315 172.686 6.1994ZM183.024 0.49201H185.281L188.304 7.86985H188.423L191.446 0.49201H193.703V10.6738H191.933V3.6788H191.839L189.025 10.644H187.703L184.889 3.66388H184.794V10.6738H183.024V0.49201ZM199.013 10.823C198.247 10.823 197.586 10.6639 197.029 10.3457C196.476 10.0242 196.05 9.57013 195.752 8.98349C195.453 8.39352 195.304 7.69916 195.304 6.90039C195.304 6.11488 195.453 5.42549 195.752 4.83221C196.053 4.23562 196.474 3.7716 197.014 3.44016C197.555 3.10541 198.189 2.93803 198.918 2.93803C199.389 2.93803 199.833 3.01426 200.251 3.16673C200.672 3.31587 201.043 3.54788 201.364 3.86275C201.689 4.17762 201.944 4.57866 202.13 5.06587C202.316 5.54978 202.409 6.12648 202.409 6.79599V7.34783H196.149V6.13477H200.683C200.68 5.79007 200.605 5.48349 200.46 5.21502C200.314 4.94324 200.11 4.72946 199.848 4.57369C199.59 4.41791 199.288 4.34002 198.943 4.34002C198.575 4.34002 198.252 4.42951 197.974 4.60849C197.695 4.78415 197.478 5.01616 197.323 5.30451C197.17 5.58955 197.092 5.90276 197.089 6.24414V7.30309C197.089 7.74722 197.17 8.12837 197.333 8.44656C197.495 8.76142 197.722 9.00337 198.014 9.17241C198.305 9.33813 198.647 9.42099 199.038 9.42099C199.3 9.42099 199.537 9.38453 199.749 9.31161C199.961 9.23538 200.145 9.12435 200.301 8.97852C200.456 8.83268 200.574 8.65205 200.654 8.43661L202.334 8.62553C202.228 9.06966 202.026 9.45745 201.727 9.78888C201.432 10.117 201.055 10.3722 200.594 10.5545C200.133 10.7335 199.606 10.823 199.013 10.823ZM207.744 3.03746V4.42951H203.354V3.03746H207.744ZM204.438 1.20792H206.238V8.37695C206.238 8.6189 206.274 8.80451 206.347 8.93377C206.423 9.05972 206.523 9.14589 206.646 9.19229C206.768 9.2387 206.904 9.2619 207.053 9.2619C207.166 9.2619 207.269 9.25361 207.361 9.23704C207.458 9.22047 207.53 9.20555 207.58 9.19229L207.883 10.5993C207.787 10.6324 207.65 10.6689 207.471 10.7086C207.295 10.7484 207.08 10.7716 206.825 10.7782C206.374 10.7915 205.968 10.7235 205.606 10.5744C205.245 10.4219 204.959 10.1866 204.746 9.86843C204.538 9.55025 204.435 9.15252 204.438 8.67525V1.20792ZM211.213 6.1994V10.6738H209.413V0.49201H211.173V4.33505H211.263C211.442 3.90418 211.719 3.56445 212.093 3.31587C212.471 3.06398 212.952 2.93803 213.535 2.93803C214.065 2.93803 214.528 3.04906 214.922 3.27113C215.316 3.49319 215.621 3.818 215.837 4.24556C216.056 4.67312 216.165 5.19513 216.165 5.81161V10.6738H214.365V6.09002C214.365 5.57629 214.233 5.17691 213.967 4.89187C213.706 4.60352 213.338 4.45934 212.864 4.45934C212.546 4.45934 212.261 4.52894 212.009 4.66815C211.76 4.80404 211.565 5.00124 211.422 5.25977C211.283 5.51829 211.213 5.8315 211.213 6.1994ZM221.33 10.823C220.585 10.823 219.938 10.6589 219.391 10.3308C218.845 10.0027 218.42 9.54362 218.119 8.95366C217.82 8.3637 217.671 7.6743 217.671 6.88548C217.671 6.09665 217.82 5.4056 218.119 4.81232C218.42 4.21905 218.845 3.75834 219.391 3.43022C219.938 3.1021 220.585 2.93803 221.33 2.93803C222.076 2.93803 222.722 3.1021 223.269 3.43022C223.816 3.75834 224.239 4.21905 224.537 4.81232C224.839 5.4056 224.989 6.09665 224.989 6.88548C224.989 7.6743 224.839 8.3637 224.537 8.95366C224.239 9.54362 223.816 10.0027 223.269 10.3308C222.722 10.6589 222.076 10.823 221.33 10.823ZM221.34 9.38121C221.745 9.38121 222.083 9.27018 222.355 9.04812C222.626 8.82274 222.828 8.52113 222.961 8.14329C223.097 7.76545 223.165 7.34452 223.165 6.8805C223.165 6.41317 223.097 5.99059 222.961 5.61275C222.828 5.23159 222.626 4.92833 222.355 4.70295C222.083 4.47757 221.745 4.36488 221.34 4.36488C220.926 4.36488 220.581 4.47757 220.306 4.70295C220.034 4.92833 219.831 5.23159 219.695 5.61275C219.562 5.99059 219.496 6.41317 219.496 6.8805C219.496 7.34452 219.562 7.76545 219.695 8.14329C219.831 8.52113 220.034 8.82274 220.306 9.04812C220.581 9.27018 220.926 9.38121 221.34 9.38121ZM229.351 10.8081C228.751 10.8081 228.214 10.6539 227.74 10.3457C227.266 10.0375 226.892 9.59002 226.616 9.00337C226.341 8.41673 226.204 7.70413 226.204 6.86559C226.204 6.0171 226.343 5.3012 226.621 4.71786C226.903 4.13121 227.283 3.68874 227.76 3.39045C228.237 3.08884 228.769 2.93803 229.356 2.93803C229.803 2.93803 230.171 3.01426 230.459 3.16673C230.748 3.31587 230.977 3.49651 231.146 3.70863C231.315 3.91744 231.446 4.11464 231.538 4.30025H231.613V0.49201H233.418V10.6738H231.648V9.4707H231.538C231.446 9.65631 231.311 9.85352 231.136 10.0623C230.96 10.2678 230.728 10.4435 230.44 10.5893C230.151 10.7351 229.788 10.8081 229.351 10.8081ZM229.853 9.3315C230.234 9.3315 230.559 9.22875 230.827 9.02326C231.096 8.81445 231.3 8.52444 231.439 8.15323C231.578 7.78202 231.648 7.34949 231.648 6.85565C231.648 6.3618 231.578 5.93259 231.439 5.568C231.303 5.20342 231.101 4.92004 230.832 4.71786C230.567 4.51568 230.241 4.41459 229.853 4.41459C229.452 4.41459 229.117 4.519 228.849 4.72781C228.58 4.93661 228.378 5.22496 228.242 5.59286C228.106 5.96076 228.038 6.38169 228.038 6.85565C228.038 7.33292 228.106 7.75882 228.242 8.13335C228.381 8.50456 228.585 8.79788 228.854 9.01332C229.125 9.22544 229.459 9.3315 229.853 9.3315ZM238.666 10.823C237.921 10.823 237.274 10.6589 236.727 10.3308C236.181 10.0027 235.756 9.54362 235.455 8.95366C235.156 8.3637 235.007 7.6743 235.007 6.88548C235.007 6.09665 235.156 5.4056 235.455 4.81232C235.756 4.21905 236.181 3.75834 236.727 3.43022C237.274 3.1021 237.921 2.93803 238.666 2.93803C239.412 2.93803 240.058 3.1021 240.605 3.43022C241.152 3.75834 241.575 4.21905 241.873 4.81232C242.175 5.4056 242.325 6.09665 242.325 6.88548C242.325 7.6743 242.175 8.3637 241.873 8.95366C241.575 9.54362 241.152 10.0027 240.605 10.3308C240.058 10.6589 239.412 10.823 238.666 10.823ZM238.676 9.38121C239.081 9.38121 239.419 9.27018 239.69 9.04812C239.962 8.82274 240.164 8.52113 240.297 8.14329C240.433 7.76545 240.501 7.34452 240.501 6.8805C240.501 6.41317 240.433 5.99059 240.297 5.61275C240.164 5.23159 239.962 4.92833 239.69 4.70295C239.419 4.47757 239.081 4.36488 238.676 4.36488C238.262 4.36488 237.917 4.47757 237.642 4.70295C237.37 4.92833 237.167 5.23159 237.031 5.61275C236.898 5.99059 236.832 6.41317 236.832 6.8805C236.832 7.34452 236.898 7.76545 237.031 8.14329C237.167 8.52113 237.37 8.82274 237.642 9.04812C237.917 9.27018 238.262 9.38121 238.676 9.38121ZM245.653 0.49201V10.6738H243.853V0.49201H245.653ZM250.834 10.823C250.089 10.823 249.442 10.6589 248.895 10.3308C248.348 10.0027 247.924 9.54362 247.623 8.95366C247.324 8.3637 247.175 7.6743 247.175 6.88548C247.175 6.09665 247.324 5.4056 247.623 4.81232C247.924 4.21905 248.348 3.75834 248.895 3.43022C249.442 3.1021 250.089 2.93803 250.834 2.93803C251.58 2.93803 252.226 3.1021 252.773 3.43022C253.32 3.75834 253.743 4.21905 254.041 4.81232C254.343 5.4056 254.493 6.09665 254.493 6.88548C254.493 7.6743 254.343 8.3637 254.041 8.95366C253.743 9.54362 253.32 10.0027 252.773 10.3308C252.226 10.6589 251.58 10.823 250.834 10.823ZM250.844 9.38121C251.249 9.38121 251.587 9.27018 251.858 9.04812C252.13 8.82274 252.332 8.52113 252.465 8.14329C252.601 7.76545 252.669 7.34452 252.669 6.8805C252.669 6.41317 252.601 5.99059 252.465 5.61275C252.332 5.23159 252.13 4.92833 251.858 4.70295C251.587 4.47757 251.249 4.36488 250.844 4.36488C250.43 4.36488 250.085 4.47757 249.81 4.70295C249.538 4.92833 249.335 5.23159 249.199 5.61275C249.066 5.99059 249 6.41317 249 6.8805C249 7.34452 249.066 7.76545 249.199 8.14329C249.335 8.52113 249.538 8.82274 249.81 9.04812C250.085 9.27018 250.43 9.38121 250.844 9.38121ZM259.342 13.6966C258.696 13.6966 258.14 13.6087 257.676 13.4331C257.212 13.2607 256.84 13.0287 256.558 12.737C256.276 12.4454 256.081 12.1222 255.971 11.7676L257.592 11.3748C257.665 11.524 257.771 11.6715 257.91 11.8173C258.049 11.9664 258.237 12.0891 258.472 12.1852C258.711 12.2846 259.01 12.3343 259.372 12.3343C259.882 12.3343 260.305 12.21 260.64 11.9615C260.974 11.7162 261.142 11.3118 261.142 10.7484V9.30167H261.052C260.959 9.48728 260.823 9.67785 260.644 9.8734C260.469 10.069 260.235 10.233 259.943 10.3656C259.655 10.4982 259.292 10.5645 258.855 10.5645C258.268 10.5645 257.736 10.4269 257.259 10.1518C256.785 9.8734 256.407 9.4591 256.125 8.90891C255.847 8.35541 255.708 7.6627 255.708 6.83079C255.708 5.99225 255.847 5.28462 256.125 4.70792C256.407 4.1279 256.787 3.68874 257.264 3.39045C257.741 3.08884 258.273 2.93803 258.86 2.93803C259.307 2.93803 259.675 3.01426 259.963 3.16673C260.255 3.31587 260.487 3.49651 260.659 3.70863C260.832 3.91744 260.963 4.11464 261.052 4.30025H261.152V3.03746H262.926V10.7981C262.926 11.4511 262.771 11.9913 262.459 12.4189C262.148 12.8464 261.722 13.1663 261.181 13.3784C260.641 13.5905 260.028 13.6966 259.342 13.6966ZM259.357 9.15252C259.738 9.15252 260.063 9.05972 260.331 8.87411C260.6 8.68851 260.804 8.4217 260.943 8.07369C261.082 7.72567 261.152 7.30806 261.152 6.82085C261.152 6.34026 261.082 5.91933 260.943 5.55806C260.807 5.19679 260.605 4.91673 260.336 4.71786C260.071 4.51568 259.745 4.41459 259.357 4.41459C258.956 4.41459 258.621 4.519 258.353 4.72781C258.084 4.93661 257.882 5.22331 257.746 5.58789C257.61 5.94916 257.542 6.36014 257.542 6.82085C257.542 7.28817 257.61 7.6975 257.746 8.04883C257.885 8.39684 258.089 8.66862 258.358 8.86417C258.629 9.0564 258.962 9.15252 259.357 9.15252ZM265.89 13.5375C265.644 13.5375 265.417 13.5176 265.208 13.4778C265.003 13.4413 264.839 13.3983 264.716 13.3485L265.134 11.9466C265.396 12.0228 265.629 12.0592 265.835 12.0559C266.04 12.0526 266.221 11.988 266.377 11.862C266.536 11.7394 266.67 11.5339 266.779 11.2456L266.934 10.8329L264.164 3.03746H266.073L267.833 8.80451H267.913L269.678 3.03746H271.592L268.534 11.5985C268.392 12.0029 268.203 12.3493 267.968 12.6376C267.732 12.9293 267.444 13.1513 267.103 13.3038C266.765 13.4596 266.36 13.5375 265.89 13.5375ZM273.946 10.7832C273.644 10.7832 273.386 10.6771 273.17 10.465C272.955 10.2529 272.849 9.99438 272.852 9.68945C272.849 9.39116 272.955 9.13595 273.17 8.92383C273.386 8.71171 273.644 8.60565 273.946 8.60565C274.238 8.60565 274.491 8.71171 274.707 8.92383C274.925 9.13595 275.036 9.39116 275.04 9.68945C275.036 9.89163 274.983 10.0756 274.881 10.2413C274.781 10.407 274.649 10.5396 274.483 10.639C274.321 10.7351 274.142 10.7832 273.946 10.7832ZM273.946 5.33434C273.644 5.33434 273.386 5.22828 273.17 5.01616C272.955 4.80072 272.849 4.5422 272.852 4.24059C272.849 3.94229 272.955 3.68709 273.17 3.47496C273.386 3.25953 273.644 3.15181 273.946 3.15181C274.238 3.15181 274.491 3.25953 274.707 3.47496C274.925 3.68709 275.036 3.94229 275.04 4.24059C275.036 4.43945 274.983 4.62174 274.881 4.78746C274.781 4.95318 274.649 5.08576 274.483 5.18519C274.321 5.28462 274.142 5.33434 273.946 5.33434ZM285.983 3.29102C285.937 2.85683 285.741 2.51876 285.397 2.27681C285.055 2.03486 284.611 1.91388 284.064 1.91388C283.68 1.91388 283.35 1.97189 283.075 2.08789C282.8 2.20389 282.59 2.36133 282.444 2.56019C282.298 2.75906 282.223 2.98609 282.22 3.2413C282.22 3.45342 282.268 3.63737 282.364 3.79315C282.464 3.94892 282.598 4.0815 282.767 4.19087C282.936 4.29693 283.123 4.38642 283.329 4.45934C283.534 4.53226 283.741 4.59357 283.95 4.64329L284.905 4.88192C285.289 4.97141 285.659 5.09239 286.013 5.24485C286.371 5.39731 286.691 5.58955 286.973 5.82156C287.258 6.05356 287.483 6.33363 287.649 6.66175C287.815 6.98988 287.898 7.37435 287.898 7.81516C287.898 8.41175 287.745 8.93709 287.44 9.39116C287.135 9.84192 286.694 10.1949 286.118 10.4501C285.544 10.702 284.85 10.8279 284.035 10.8279C283.242 10.8279 282.555 10.7053 281.971 10.46C281.391 10.2148 280.937 9.85683 280.609 9.38619C280.284 8.91554 280.109 8.34215 280.082 7.66602H281.897C281.923 8.02066 282.033 8.31564 282.225 8.55096C282.417 8.78628 282.667 8.96194 282.976 9.07795C283.287 9.19395 283.635 9.25195 284.02 9.25195C284.421 9.25195 284.772 9.19229 285.074 9.07298C285.379 8.95034 285.617 8.78131 285.79 8.56587C285.962 8.34712 286.05 8.09192 286.053 7.80025C286.05 7.5351 285.972 7.31635 285.819 7.144C285.667 6.96834 285.453 6.8225 285.178 6.7065C284.906 6.58718 284.588 6.48112 284.223 6.38832L283.065 6.09002C282.227 5.87459 281.564 5.54812 281.076 5.11062C280.593 4.6698 280.351 4.08481 280.351 3.35565C280.351 2.75574 280.513 2.23041 280.838 1.77965C281.166 1.32889 281.612 0.979226 282.175 0.730646C282.739 0.478752 283.377 0.352805 284.089 0.352805C284.812 0.352805 285.445 0.478752 285.988 0.730646C286.535 0.979226 286.965 1.32558 287.276 1.76971C287.588 2.21052 287.748 2.71763 287.758 3.29102H285.983ZM293.276 3.03746V4.42951H288.886V3.03746H293.276ZM289.969 1.20792H291.769V8.37695C291.769 8.6189 291.806 8.80451 291.879 8.93377C291.955 9.05972 292.054 9.14589 292.177 9.19229C292.299 9.2387 292.435 9.2619 292.584 9.2619C292.697 9.2619 292.8 9.25361 292.893 9.23704C292.989 9.22047 293.062 9.20555 293.111 9.19229L293.415 10.5993C293.319 10.6324 293.181 10.6689 293.002 10.7086C292.826 10.7484 292.611 10.7716 292.356 10.7782C291.905 10.7915 291.499 10.7235 291.138 10.5744C290.776 10.4219 290.49 10.1866 290.278 9.86843C290.069 9.55025 289.966 9.15252 289.969 8.67525V1.20792ZM296.978 10.8279C296.494 10.8279 296.058 10.7418 295.671 10.5694C295.286 10.3938 294.981 10.1352 294.756 9.79386C294.534 9.45247 294.423 9.03155 294.423 8.53107C294.423 8.1002 294.502 7.7439 294.661 7.46218C294.82 7.18046 295.038 6.95508 295.313 6.78604C295.588 6.61701 295.898 6.48941 296.242 6.40323C296.59 6.31374 296.95 6.24911 297.321 6.20934C297.769 6.16294 298.132 6.12151 298.41 6.08505C298.688 6.04528 298.891 5.98562 299.016 5.90607C299.146 5.82321 299.21 5.69561 299.21 5.52326V5.49343C299.21 5.1189 299.099 4.82889 298.877 4.6234C298.655 4.41791 298.335 4.31516 297.918 4.31516C297.477 4.31516 297.127 4.41128 296.869 4.60352C296.614 4.79575 296.441 5.02279 296.352 5.28462L294.671 5.04599C294.804 4.58197 295.023 4.19419 295.328 3.88263C295.632 3.56777 296.005 3.33245 296.446 3.17667C296.887 3.01758 297.374 2.93803 297.908 2.93803C298.276 2.93803 298.642 2.98112 299.007 3.06729C299.371 3.15347 299.704 3.29599 300.006 3.49485C300.307 3.6904 300.549 3.95721 300.732 4.29528C300.917 4.63334 301.01 5.05593 301.01 5.56303V10.6738H299.28V9.62482H299.22C299.111 9.83694 298.957 10.0358 298.758 10.2214C298.562 10.4037 298.315 10.5512 298.017 10.6639C297.722 10.7733 297.376 10.8279 296.978 10.8279ZM297.445 9.5055C297.807 9.5055 298.12 9.43424 298.385 9.29173C298.65 9.14589 298.854 8.95366 298.997 8.71502C299.142 8.47638 299.215 8.2162 299.215 7.93448V7.03462C299.159 7.08103 299.063 7.12411 298.927 7.16388C298.794 7.20366 298.645 7.23846 298.48 7.26829C298.314 7.29812 298.15 7.32463 297.987 7.34783C297.825 7.37103 297.684 7.39092 297.565 7.40749C297.296 7.44395 297.056 7.50361 296.844 7.58647C296.632 7.66933 296.464 7.78533 296.342 7.93448C296.219 8.08031 296.158 8.26924 296.158 8.50124C296.158 8.83268 296.279 9.08292 296.521 9.25195C296.763 9.42099 297.071 9.5055 297.445 9.5055ZM304.46 8.27752L304.455 6.10494H304.744L307.488 3.03746H309.591L306.215 6.79599H305.842L304.46 8.27752ZM302.82 10.6738V0.49201H304.619V10.6738H302.82ZM307.612 10.6738L305.127 7.19869L306.34 5.93093L309.765 10.6738H307.612ZM313.857 10.823C313.091 10.823 312.43 10.6639 311.873 10.3457C311.319 10.0242 310.894 9.57013 310.595 8.98349C310.297 8.39352 310.148 7.69916 310.148 6.90039C310.148 6.11488 310.297 5.42549 310.595 4.83221C310.897 4.23562 311.318 3.7716 311.858 3.44016C312.398 3.10541 313.033 2.93803 313.762 2.93803C314.233 2.93803 314.677 3.01426 315.095 3.16673C315.516 3.31587 315.887 3.54788 316.208 3.86275C316.533 4.17762 316.788 4.57866 316.974 5.06587C317.159 5.54978 317.252 6.12648 317.252 6.79599V7.34783H310.993V6.13477H315.527C315.524 5.79007 315.449 5.48349 315.303 5.21502C315.158 4.94324 314.954 4.72946 314.692 4.57369C314.433 4.41791 314.132 4.34002 313.787 4.34002C313.419 4.34002 313.096 4.42951 312.818 4.60849C312.539 4.78415 312.322 5.01616 312.166 5.30451C312.014 5.58955 311.936 5.90276 311.933 6.24414V7.30309C311.933 7.74722 312.014 8.12837 312.176 8.44656C312.339 8.76142 312.566 9.00337 312.857 9.17241C313.149 9.33813 313.49 9.42099 313.882 9.42099C314.143 9.42099 314.38 9.38453 314.592 9.31161C314.805 9.23538 314.989 9.12435 315.144 8.97852C315.3 8.83268 315.418 8.65205 315.497 8.43661L317.178 8.62553C317.072 9.06966 316.869 9.45745 316.571 9.78888C316.276 10.117 315.898 10.3722 315.438 10.5545C314.977 10.7335 314.45 10.823 313.857 10.823ZM320.575 6.1994V10.6738H318.775V0.49201H320.535V4.33505H320.624C320.803 3.90418 321.08 3.56445 321.455 3.31587C321.832 3.06398 322.313 2.93803 322.896 2.93803C323.427 2.93803 323.889 3.04906 324.283 3.27113C324.678 3.49319 324.983 3.818 325.198 4.24556C325.417 4.67312 325.526 5.19513 325.526 5.81161V10.6738H323.727V6.09002C323.727 5.57629 323.594 5.17691 323.329 4.89187C323.067 4.60352 322.699 4.45934 322.225 4.45934C321.907 4.45934 321.622 4.52894 321.37 4.66815C321.121 4.80404 320.926 5.00124 320.783 5.25977C320.644 5.51829 320.575 5.8315 320.575 6.1994ZM330.692 10.823C329.946 10.823 329.3 10.6589 328.753 10.3308C328.206 10.0027 327.782 9.54362 327.48 8.95366C327.182 8.3637 327.033 7.6743 327.033 6.88548C327.033 6.09665 327.182 5.4056 327.48 4.81232C327.782 4.21905 328.206 3.75834 328.753 3.43022C329.3 3.1021 329.946 2.93803 330.692 2.93803C331.437 2.93803 332.084 3.1021 332.631 3.43022C333.178 3.75834 333.6 4.21905 333.898 4.81232C334.2 5.4056 334.351 6.09665 334.351 6.88548C334.351 7.6743 334.2 8.3637 333.898 8.95366C333.6 9.54362 333.178 10.0027 332.631 10.3308C332.084 10.6589 331.437 10.823 330.692 10.823ZM330.702 9.38121C331.106 9.38121 331.444 9.27018 331.716 9.04812C331.988 8.82274 332.19 8.52113 332.322 8.14329C332.458 7.76545 332.526 7.34452 332.526 6.8805C332.526 6.41317 332.458 5.99059 332.322 5.61275C332.19 5.23159 331.988 4.92833 331.716 4.70295C331.444 4.47757 331.106 4.36488 330.702 4.36488C330.287 4.36488 329.943 4.47757 329.668 4.70295C329.396 4.92833 329.192 5.23159 329.056 5.61275C328.923 5.99059 328.857 6.41317 328.857 6.8805C328.857 7.34452 328.923 7.76545 329.056 8.14329C329.192 8.52113 329.396 8.82274 329.668 9.04812C329.943 9.27018 330.287 9.38121 330.702 9.38121ZM337.678 0.49201V10.6738H335.878V0.49201H337.678ZM342.363 10.8081C341.763 10.8081 341.226 10.6539 340.752 10.3457C340.278 10.0375 339.903 9.59002 339.628 9.00337C339.353 8.41673 339.216 7.70413 339.216 6.86559C339.216 6.0171 339.355 5.3012 339.633 4.71786C339.915 4.13121 340.294 3.68874 340.772 3.39045C341.249 3.08884 341.781 2.93803 342.367 2.93803C342.815 2.93803 343.183 3.01426 343.471 3.16673C343.76 3.31587 343.988 3.49651 344.157 3.70863C344.326 3.91744 344.457 4.11464 344.55 4.30025H344.625V0.49201H346.429V10.6738H344.659V9.4707H344.55C344.457 9.65631 344.323 9.85352 344.147 10.0623C343.972 10.2678 343.74 10.4435 343.451 10.5893C343.163 10.7351 342.8 10.8081 342.363 10.8081ZM342.865 9.3315C343.246 9.3315 343.571 9.22875 343.839 9.02326C344.108 8.81445 344.311 8.52444 344.451 8.15323C344.59 7.78202 344.659 7.34949 344.659 6.85565C344.659 6.3618 344.59 5.93259 344.451 5.568C344.315 5.20342 344.113 4.92004 343.844 4.71786C343.579 4.51568 343.252 4.41459 342.865 4.41459C342.464 4.41459 342.129 4.519 341.86 4.72781C341.592 4.93661 341.39 5.22496 341.254 5.59286C341.118 5.96076 341.05 6.38169 341.05 6.85565C341.05 7.33292 341.118 7.75882 341.254 8.13335C341.393 8.50456 341.597 8.79788 341.865 9.01332C342.137 9.22544 342.47 9.3315 342.865 9.3315ZM351.728 10.823C350.962 10.823 350.301 10.6639 349.744 10.3457C349.191 10.0242 348.765 9.57013 348.466 8.98349C348.168 8.39352 348.019 7.69916 348.019 6.90039C348.019 6.11488 348.168 5.42549 348.466 4.83221C348.768 4.23562 349.189 3.7716 349.729 3.44016C350.269 3.10541 350.904 2.93803 351.633 2.93803C352.104 2.93803 352.548 3.01426 352.966 3.16673C353.387 3.31587 353.758 3.54788 354.079 3.86275C354.404 4.17762 354.659 4.57866 354.845 5.06587C355.031 5.54978 355.123 6.12648 355.123 6.79599V7.34783H348.864V6.13477H353.398C353.395 5.79007 353.32 5.48349 353.174 5.21502C353.029 4.94324 352.825 4.72946 352.563 4.57369C352.304 4.41791 352.003 4.34002 351.658 4.34002C351.29 4.34002 350.967 4.42951 350.689 4.60849C350.41 4.78415 350.193 5.01616 350.037 5.30451C349.885 5.58955 349.807 5.90276 349.804 6.24414V7.30309C349.804 7.74722 349.885 8.12837 350.047 8.44656C350.21 8.76142 350.437 9.00337 350.728 9.17241C351.02 9.33813 351.362 9.42099 351.753 9.42099C352.014 9.42099 352.251 9.38453 352.464 9.31161C352.676 9.23538 352.86 9.12435 353.015 8.97852C353.171 8.83268 353.289 8.65205 353.368 8.43661L355.049 8.62553C354.943 9.06966 354.741 9.45745 354.442 9.78888C354.147 10.117 353.769 10.3722 353.309 10.5545C352.848 10.7335 352.321 10.823 351.728 10.823ZM356.646 10.6738V3.03746H358.391V4.31019H358.47C358.61 3.86938 358.848 3.52965 359.186 3.29102C359.528 3.04906 359.917 2.92809 360.355 2.92809C360.454 2.92809 360.565 2.93306 360.688 2.943C360.814 2.94963 360.918 2.96123 361.001 2.97781V4.63334C360.925 4.60683 360.804 4.58363 360.638 4.56374C360.476 4.54054 360.318 4.52894 360.166 4.52894C359.838 4.52894 359.543 4.6002 359.281 4.74272C359.022 4.88192 358.818 5.07582 358.669 5.3244C358.52 5.57298 358.446 5.85967 358.446 6.18448V10.6738H356.646ZM365.669 10.6738V3.03746H367.469V10.6738H365.669ZM366.574 1.95366C366.289 1.95366 366.044 1.8592 365.838 1.67028C365.633 1.47804 365.53 1.24769 365.53 0.979225C365.53 0.707445 365.633 0.477095 365.838 0.288174C366.044 0.0959394 366.289 -0.00017786 366.574 -0.00017786C366.863 -0.00017786 367.108 0.0959394 367.31 0.288174C367.515 0.477095 367.618 0.707445 367.618 0.979225C367.618 1.24769 367.515 1.47804 367.31 1.67028C367.108 1.8592 366.863 1.95366 366.574 1.95366ZM371.119 6.1994V10.6738H369.32V3.03746H371.04V4.33505H371.129C371.305 3.90749 371.585 3.56777 371.97 3.31587C372.357 3.06398 372.836 2.93803 373.406 2.93803C373.933 2.93803 374.392 3.05072 374.784 3.2761C375.178 3.50148 375.483 3.82795 375.698 4.2555C375.917 4.68306 376.025 5.20176 376.021 5.81161V10.6738H374.222V6.09002C374.222 5.5796 374.089 5.18022 373.824 4.89187C373.562 4.60352 373.199 4.45934 372.735 4.45934C372.42 4.45934 372.14 4.52894 371.895 4.66815C371.653 4.80404 371.462 5.00124 371.323 5.25977C371.187 5.51829 371.119 5.8315 371.119 6.1994ZM381.664 3.03746V4.42951H377.274V3.03746H381.664ZM378.358 1.20792H380.158V8.37695C380.158 8.6189 380.194 8.80451 380.267 8.93377C380.343 9.05972 380.443 9.14589 380.565 9.19229C380.688 9.2387 380.824 9.2619 380.973 9.2619C381.086 9.2619 381.189 9.25361 381.281 9.23704C381.378 9.22047 381.45 9.20555 381.5 9.19229L381.803 10.5993C381.707 10.6324 381.57 10.6689 381.391 10.7086C381.215 10.7484 381 10.7716 380.744 10.7782C380.294 10.7915 379.888 10.7235 379.526 10.5744C379.165 10.4219 378.878 10.1866 378.666 9.86843C378.458 9.55025 378.355 9.15252 378.358 8.67525V1.20792ZM386.468 10.823C385.702 10.823 385.041 10.6639 384.484 10.3457C383.931 10.0242 383.505 9.57013 383.207 8.98349C382.908 8.39352 382.759 7.69916 382.759 6.90039C382.759 6.11488 382.908 5.42549 383.207 4.83221C383.508 4.23562 383.929 3.7716 384.469 3.44016C385.01 3.10541 385.644 2.93803 386.374 2.93803C386.844 2.93803 387.288 3.01426 387.706 3.16673C388.127 3.31587 388.498 3.54788 388.82 3.86275C389.144 4.17762 389.4 4.57866 389.585 5.06587C389.771 5.54978 389.864 6.12648 389.864 6.79599V7.34783H383.604V6.13477H388.138C388.135 5.79007 388.061 5.48349 387.915 5.21502C387.769 4.94324 387.565 4.72946 387.303 4.57369C387.045 4.41791 386.743 4.34002 386.398 4.34002C386.03 4.34002 385.707 4.42951 385.429 4.60849C385.151 4.78415 384.933 5.01616 384.778 5.30451C384.625 5.58955 384.547 5.90276 384.544 6.24414V7.30309C384.544 7.74722 384.625 8.12837 384.788 8.44656C384.95 8.76142 385.177 9.00337 385.469 9.17241C385.76 9.33813 386.102 9.42099 386.493 9.42099C386.755 9.42099 386.992 9.38453 387.204 9.31161C387.416 9.23538 387.6 9.12435 387.756 8.97852C387.911 8.83268 388.029 8.65205 388.109 8.43661L389.789 8.62553C389.683 9.06966 389.481 9.45745 389.182 9.78888C388.888 10.117 388.51 10.3722 388.049 10.5545C387.588 10.7335 387.061 10.823 386.468 10.823ZM391.386 10.6738V3.03746H393.131V4.31019H393.211C393.35 3.86938 393.589 3.52965 393.927 3.29102C394.268 3.04906 394.657 2.92809 395.095 2.92809C395.194 2.92809 395.305 2.93306 395.428 2.943C395.554 2.94963 395.658 2.96123 395.741 2.97781V4.63334C395.665 4.60683 395.544 4.58363 395.378 4.56374C395.216 4.54054 395.058 4.52894 394.906 4.52894C394.578 4.52894 394.283 4.6002 394.021 4.74272C393.763 4.88192 393.559 5.07582 393.41 5.3244C393.26 5.57298 393.186 5.85967 393.186 6.18448V10.6738H391.386ZM403.99 3.03746L401.271 10.6738H399.282L396.563 3.03746H398.482L400.237 8.71005H400.316L402.076 3.03746H403.99ZM405.236 10.6738V3.03746H407.035V10.6738H405.236ZM406.141 1.95366C405.856 1.95366 405.61 1.8592 405.405 1.67028C405.199 1.47804 405.097 1.24769 405.097 0.979225C405.097 0.707445 405.199 0.477095 405.405 0.288174C405.61 0.0959394 405.856 -0.00017786 406.141 -0.00017786C406.429 -0.00017786 406.674 0.0959394 406.876 0.288174C407.082 0.477095 407.185 0.707445 407.185 0.979225C407.185 1.24769 407.082 1.47804 406.876 1.67028C406.674 1.8592 406.429 1.95366 406.141 1.95366ZM412.267 10.823C411.501 10.823 410.84 10.6639 410.283 10.3457C409.73 10.0242 409.304 9.57013 409.005 8.98349C408.707 8.39352 408.558 7.69916 408.558 6.90039C408.558 6.11488 408.707 5.42549 409.005 4.83221C409.307 4.23562 409.728 3.7716 410.268 3.44016C410.808 3.10541 411.443 2.93803 412.172 2.93803C412.643 2.93803 413.087 3.01426 413.505 3.16673C413.926 3.31587 414.297 3.54788 414.618 3.86275C414.943 4.17762 415.198 4.57866 415.384 5.06587C415.57 5.54978 415.662 6.12648 415.662 6.79599V7.34783H409.403V6.13477H413.937C413.934 5.79007 413.859 5.48349 413.714 5.21502C413.568 4.94324 413.364 4.72946 413.102 4.57369C412.844 4.41791 412.542 4.34002 412.197 4.34002C411.829 4.34002 411.506 4.42951 411.228 4.60849C410.949 4.78415 410.732 5.01616 410.576 5.30451C410.424 5.58955 410.346 5.90276 410.343 6.24414V7.30309C410.343 7.74722 410.424 8.12837 410.586 8.44656C410.749 8.76142 410.976 9.00337 411.268 9.17241C411.559 9.33813 411.901 9.42099 412.292 9.42099C412.554 9.42099 412.79 9.38453 413.003 9.31161C413.215 9.23538 413.399 9.12435 413.554 8.97852C413.71 8.83268 413.828 8.65205 413.907 8.43661L415.588 8.62553C415.482 9.06966 415.28 9.45745 414.981 9.78888C414.686 10.117 414.308 10.3722 413.848 10.5545C413.387 10.7335 412.86 10.823 412.267 10.823ZM418.72 10.6738L416.562 3.03746H418.397L419.739 8.40678H419.809L421.181 3.03746H422.996L424.368 8.37695H424.442L425.765 3.03746H427.604L425.442 10.6738H423.567L422.135 5.51332H422.031L420.599 10.6738H418.72ZM434.896 5.05593L433.256 5.23491C433.209 5.06919 433.128 4.91341 433.012 4.76758C432.899 4.62174 432.747 4.50408 432.555 4.41459C432.362 4.32511 432.127 4.28036 431.849 4.28036C431.474 4.28036 431.159 4.36156 430.904 4.52397C430.652 4.68638 430.528 4.89684 430.531 5.15536C430.528 5.37743 430.609 5.55806 430.775 5.69727C430.944 5.83647 431.222 5.95082 431.61 6.04031L432.913 6.31871C433.635 6.47449 434.172 6.72141 434.523 7.05948C434.878 7.39755 435.057 7.84002 435.06 8.3869C435.057 8.86748 434.916 9.29173 434.638 9.65962C434.363 10.0242 433.98 10.3092 433.489 10.5147C432.999 10.7202 432.435 10.823 431.799 10.823C430.864 10.823 430.112 10.6274 429.542 10.2363C428.972 9.84192 428.632 9.29338 428.523 8.59073L430.278 8.4217C430.357 8.76639 430.526 9.02657 430.785 9.20224C431.043 9.3779 431.38 9.46573 431.794 9.46573C432.222 9.46573 432.565 9.3779 432.823 9.20224C433.085 9.02657 433.216 8.80948 433.216 8.55096C433.216 8.33221 433.131 8.15157 432.962 8.00906C432.797 7.86654 432.538 7.75716 432.187 7.68093L430.884 7.40749C430.152 7.25503 429.61 6.99817 429.258 6.6369C428.907 6.27231 428.733 5.81161 428.736 5.25479C428.733 4.78415 428.861 4.37648 429.119 4.03178C429.381 3.68377 429.744 3.41531 430.208 3.22638C430.675 3.03415 431.214 2.93803 431.824 2.93803C432.719 2.93803 433.423 3.12861 433.937 3.50977C434.454 3.89092 434.774 4.40631 434.896 5.05593ZM438.657 9.28178L438.593 9.82866C438.546 10.2463 438.463 10.6705 438.344 11.1014C438.228 11.5356 438.105 11.935 437.976 12.2995C437.847 12.6641 437.742 12.9508 437.663 13.1596H436.45C436.496 12.9574 436.559 12.6824 436.639 12.3343C436.722 11.9863 436.801 11.5952 436.877 11.161C436.954 10.7269 437.005 10.286 437.032 9.8386L437.066 9.28178H438.657ZM445.407 10.6738L443.25 3.03746H445.084L446.427 8.40678H446.496L447.868 3.03746H449.683L451.055 8.37695H451.13L452.452 3.03746H454.292L452.129 10.6738H450.255L448.823 5.51332H448.719L447.287 10.6738H445.407ZM458.66 10.823C457.915 10.823 457.268 10.6589 456.722 10.3308C456.175 10.0027 455.75 9.54362 455.449 8.95366C455.151 8.3637 455.001 7.6743 455.001 6.88548C455.001 6.09665 455.151 5.4056 455.449 4.81232C455.75 4.21905 456.175 3.75834 456.722 3.43022C457.268 3.1021 457.915 2.93803 458.66 2.93803C459.406 2.93803 460.053 3.1021 460.599 3.43022C461.146 3.75834 461.569 4.21905 461.867 4.81232C462.169 5.4056 462.32 6.09665 462.32 6.88548C462.32 7.6743 462.169 8.3637 461.867 8.95366C461.569 9.54362 461.146 10.0027 460.599 10.3308C460.053 10.6589 459.406 10.823 458.66 10.823ZM458.67 9.38121C459.075 9.38121 459.413 9.27018 459.685 9.04812C459.956 8.82274 460.159 8.52113 460.291 8.14329C460.427 7.76545 460.495 7.34452 460.495 6.8805C460.495 6.41317 460.427 5.99059 460.291 5.61275C460.159 5.23159 459.956 4.92833 459.685 4.70295C459.413 4.47757 459.075 4.36488 458.67 4.36488C458.256 4.36488 457.911 4.47757 457.636 4.70295C457.365 4.92833 457.161 5.23159 457.025 5.61275C456.892 5.99059 456.826 6.41317 456.826 6.8805C456.826 7.34452 456.892 7.76545 457.025 8.14329C457.161 8.52113 457.365 8.82274 457.636 9.04812C457.911 9.27018 458.256 9.38121 458.67 9.38121ZM463.847 10.6738V3.03746H465.592V4.31019H465.672C465.811 3.86938 466.049 3.52965 466.388 3.29102C466.729 3.04906 467.118 2.92809 467.556 2.92809C467.655 2.92809 467.766 2.93306 467.889 2.943C468.015 2.94963 468.119 2.96123 468.202 2.97781V4.63334C468.126 4.60683 468.005 4.58363 467.839 4.56374C467.677 4.54054 467.519 4.52894 467.367 4.52894C467.039 4.52894 466.744 4.6002 466.482 4.74272C466.223 4.88192 466.02 5.07582 465.871 5.3244C465.721 5.57298 465.647 5.85967 465.647 6.18448V10.6738H463.847ZM471.038 8.27752L471.034 6.10494H471.322L474.066 3.03746H476.169L472.793 6.79599H472.421L471.038 8.27752ZM469.398 10.6738V0.49201H471.198V10.6738H469.398ZM474.19 10.6738L471.705 7.19869L472.918 5.93093L476.343 10.6738H474.19ZM481.236 3.03746V4.42951H476.722V3.03746H481.236ZM477.851 10.6738V2.31658C477.851 1.80285 477.957 1.3753 478.169 1.03391C478.384 0.69253 478.673 0.437322 479.034 0.268288C479.395 0.0992537 479.796 0.0147365 480.237 0.0147365C480.549 0.0147365 480.825 0.0395947 481.067 0.089311C481.309 0.139027 481.488 0.183771 481.604 0.223544L481.246 1.61559C481.17 1.59239 481.074 1.56919 480.958 1.54599C480.842 1.51947 480.713 1.50621 480.57 1.50621C480.236 1.50621 479.999 1.58742 479.859 1.74982C479.723 1.90891 479.655 2.13761 479.655 2.4359V10.6738H477.851ZM484.446 0.49201V10.6738H482.646V0.49201H484.446ZM489.627 10.823C488.882 10.823 488.235 10.6589 487.688 10.3308C487.141 10.0027 486.717 9.54362 486.416 8.95366C486.117 8.3637 485.968 7.6743 485.968 6.88548C485.968 6.09665 486.117 5.4056 486.416 4.81232C486.717 4.21905 487.141 3.75834 487.688 3.43022C488.235 3.1021 488.882 2.93803 489.627 2.93803C490.373 2.93803 491.019 3.1021 491.566 3.43022C492.113 3.75834 492.536 4.21905 492.834 4.81232C493.136 5.4056 493.286 6.09665 493.286 6.88548C493.286 7.6743 493.136 8.3637 492.834 8.95366C492.536 9.54362 492.113 10.0027 491.566 10.3308C491.019 10.6589 490.373 10.823 489.627 10.823ZM489.637 9.38121C490.042 9.38121 490.38 9.27018 490.651 9.04812C490.923 8.82274 491.125 8.52113 491.258 8.14329C491.394 7.76545 491.462 7.34452 491.462 6.8805C491.462 6.41317 491.394 5.99059 491.258 5.61275C491.125 5.23159 490.923 4.92833 490.651 4.70295C490.38 4.47757 490.042 4.36488 489.637 4.36488C489.223 4.36488 488.878 4.47757 488.603 4.70295C488.331 4.92833 488.128 5.23159 487.992 5.61275C487.859 5.99059 487.793 6.41317 487.793 6.8805C487.793 7.34452 487.859 7.76545 487.992 8.14329C488.128 8.52113 488.331 8.82274 488.603 9.04812C488.878 9.27018 489.223 9.38121 489.637 9.38121ZM496.171 10.6738L494.013 3.03746H495.848L497.19 8.40678H497.26L498.632 3.03746H500.447L501.819 8.37695H501.893L503.216 3.03746H505.055L502.893 10.6738H501.018L499.587 5.51332H499.482L498.05 10.6738H496.171ZM513.116 10.823C512.37 10.823 511.723 10.6589 511.177 10.3308C510.63 10.0027 510.206 9.54362 509.904 8.95366C509.606 8.3637 509.456 7.6743 509.456 6.88548C509.456 6.09665 509.606 5.4056 509.904 4.81232C510.206 4.21905 510.63 3.75834 511.177 3.43022C511.723 3.1021 512.37 2.93803 513.116 2.93803C513.861 2.93803 514.508 3.1021 515.054 3.43022C515.601 3.75834 516.024 4.21905 516.322 4.81232C516.624 5.4056 516.775 6.09665 516.775 6.88548C516.775 7.6743 516.624 8.3637 516.322 8.95366C516.024 9.54362 515.601 10.0027 515.054 10.3308C514.508 10.6589 513.861 10.823 513.116 10.823ZM513.125 9.38121C513.53 9.38121 513.868 9.27018 514.14 9.04812C514.411 8.82274 514.614 8.52113 514.746 8.14329C514.882 7.76545 514.95 7.34452 514.95 6.8805C514.95 6.41317 514.882 5.99059 514.746 5.61275C514.614 5.23159 514.411 4.92833 514.14 4.70295C513.868 4.47757 513.53 4.36488 513.125 4.36488C512.711 4.36488 512.366 4.47757 512.091 4.70295C511.82 4.92833 511.616 5.23159 511.48 5.61275C511.347 5.99059 511.281 6.41317 511.281 6.8805C511.281 7.34452 511.347 7.76545 511.48 8.14329C511.616 8.52113 511.82 8.82274 512.091 9.04812C512.366 9.27018 512.711 9.38121 513.125 9.38121ZM518.382 10.6738V0.49201H520.181V4.30025H520.256C520.349 4.11464 520.48 3.91744 520.649 3.70863C520.818 3.49651 521.046 3.31587 521.335 3.16673C521.623 3.01426 521.991 2.93803 522.439 2.93803C523.028 2.93803 523.56 3.08884 524.034 3.39045C524.512 3.68874 524.89 4.13121 525.168 4.71786C525.45 5.3012 525.591 6.0171 525.591 6.86559C525.591 7.70413 525.453 8.41673 525.178 9.00337C524.903 9.59002 524.528 10.0375 524.054 10.3457C523.58 10.6539 523.043 10.8081 522.443 10.8081C522.006 10.8081 521.643 10.7351 521.355 10.5893C521.066 10.4435 520.834 10.2678 520.659 10.0623C520.486 9.85352 520.352 9.65631 520.256 9.4707H520.152V10.6738H518.382ZM520.147 6.85565C520.147 7.34949 520.216 7.78202 520.355 8.15323C520.498 8.52444 520.702 8.81445 520.967 9.02326C521.235 9.22875 521.56 9.3315 521.941 9.3315C522.339 9.3315 522.672 9.22544 522.941 9.01332C523.209 8.79788 523.411 8.50456 523.547 8.13335C523.686 7.75882 523.756 7.33292 523.756 6.85565C523.756 6.38169 523.688 5.96076 523.552 5.59286C523.416 5.22496 523.214 4.93661 522.946 4.72781C522.677 4.519 522.342 4.41459 521.941 4.41459C521.557 4.41459 521.23 4.51568 520.962 4.71786C520.693 4.92004 520.49 5.20342 520.35 5.568C520.215 5.93259 520.147 6.3618 520.147 6.85565ZM533.156 5.05593L531.515 5.23491C531.469 5.06919 531.388 4.91341 531.272 4.76758C531.159 4.62174 531.007 4.50408 530.814 4.41459C530.622 4.32511 530.387 4.28036 530.108 4.28036C529.734 4.28036 529.419 4.36156 529.164 4.52397C528.912 4.68638 528.788 4.89684 528.791 5.15536C528.788 5.37743 528.869 5.55806 529.035 5.69727C529.204 5.83647 529.482 5.95082 529.87 6.04031L531.172 6.31871C531.895 6.47449 532.432 6.72141 532.783 7.05948C533.138 7.39755 533.317 7.84002 533.32 8.3869C533.317 8.86748 533.176 9.29173 532.898 9.65962C532.622 10.0242 532.24 10.3092 531.749 10.5147C531.259 10.7202 530.695 10.823 530.059 10.823C529.124 10.823 528.372 10.6274 527.802 10.2363C527.232 9.84192 526.892 9.29338 526.782 8.59073L528.537 8.4217C528.617 8.76639 528.786 9.02657 529.045 9.20224C529.303 9.3779 529.639 9.46573 530.054 9.46573C530.481 9.46573 530.824 9.3779 531.083 9.20224C531.345 9.02657 531.476 8.80948 531.476 8.55096C531.476 8.33221 531.391 8.15157 531.222 8.00906C531.056 7.86654 530.798 7.75716 530.447 7.68093L529.144 7.40749C528.411 7.25503 527.87 6.99817 527.518 6.6369C527.167 6.27231 526.993 5.81161 526.996 5.25479C526.993 4.78415 527.121 4.37648 527.379 4.03178C527.641 3.68377 528.004 3.41531 528.468 3.22638C528.935 3.03415 529.474 2.93803 530.084 2.93803C530.978 2.93803 531.683 3.12861 532.197 3.50977C532.714 3.89092 533.033 4.40631 533.156 5.05593ZM538.185 10.823C537.419 10.823 536.758 10.6639 536.201 10.3457C535.648 10.0242 535.222 9.57013 534.923 8.98349C534.625 8.39352 534.476 7.69916 534.476 6.90039C534.476 6.11488 534.625 5.42549 534.923 4.83221C535.225 4.23562 535.646 3.7716 536.186 3.44016C536.726 3.10541 537.361 2.93803 538.09 2.93803C538.561 2.93803 539.005 3.01426 539.423 3.16673C539.844 3.31587 540.215 3.54788 540.536 3.86275C540.861 4.17762 541.116 4.57866 541.302 5.06587C541.488 5.54978 541.58 6.12648 541.58 6.79599V7.34783H535.321V6.13477H539.855C539.852 5.79007 539.777 5.48349 539.632 5.21502C539.486 4.94324 539.282 4.72946 539.02 4.57369C538.761 4.41791 538.46 4.34002 538.115 4.34002C537.747 4.34002 537.424 4.42951 537.146 4.60849C536.867 4.78415 536.65 5.01616 536.494 5.30451C536.342 5.58955 536.264 5.90276 536.261 6.24414V7.30309C536.261 7.74722 536.342 8.12837 536.504 8.44656C536.667 8.76142 536.894 9.00337 537.186 9.17241C537.477 9.33813 537.819 9.42099 538.21 9.42099C538.471 9.42099 538.708 9.38453 538.921 9.31161C539.133 9.23538 539.317 9.12435 539.472 8.97852C539.628 8.83268 539.746 8.65205 539.825 8.43661L541.506 8.62553C541.4 9.06966 541.198 9.45745 540.899 9.78888C540.604 10.117 540.226 10.3722 539.766 10.5545C539.305 10.7335 538.778 10.823 538.185 10.823ZM543.103 10.6738V3.03746H544.848V4.31019H544.928C545.067 3.86938 545.305 3.52965 545.643 3.29102C545.985 3.04906 546.374 2.92809 546.812 2.92809C546.911 2.92809 547.022 2.93306 547.145 2.943C547.271 2.94963 547.375 2.96123 547.458 2.97781V4.63334C547.382 4.60683 547.261 4.58363 547.095 4.56374C546.933 4.54054 546.775 4.52894 546.623 4.52894C546.295 4.52894 546 4.6002 545.738 4.74272C545.479 4.88192 545.276 5.07582 545.126 5.3244C544.977 5.57298 544.903 5.85967 544.903 6.18448V10.6738H543.103ZM555.707 3.03746L552.988 10.6738H550.999L548.28 3.03746H550.199L551.954 8.71005H552.033L553.793 3.03746H555.707ZM558.931 10.8279C558.447 10.8279 558.011 10.7418 557.624 10.5694C557.239 10.3938 556.934 10.1352 556.709 9.79386C556.487 9.45247 556.376 9.03155 556.376 8.53107C556.376 8.1002 556.455 7.7439 556.614 7.46218C556.774 7.18046 556.991 6.95508 557.266 6.78604C557.541 6.61701 557.851 6.48941 558.195 6.40323C558.543 6.31374 558.903 6.24911 559.274 6.20934C559.722 6.16294 560.085 6.12151 560.363 6.08505C560.641 6.04528 560.844 5.98562 560.97 5.90607C561.099 5.82321 561.163 5.69561 561.163 5.52326V5.49343C561.163 5.1189 561.052 4.82889 560.83 4.6234C560.608 4.41791 560.288 4.31516 559.871 4.31516C559.43 4.31516 559.08 4.41128 558.822 4.60352C558.567 4.79575 558.394 5.02279 558.305 5.28462L556.624 5.04599C556.757 4.58197 556.976 4.19419 557.281 3.88263C557.586 3.56777 557.958 3.33245 558.399 3.17667C558.84 3.01758 559.327 2.93803 559.861 2.93803C560.229 2.93803 560.595 2.98112 560.96 3.06729C561.324 3.15347 561.657 3.29599 561.959 3.49485C562.261 3.6904 562.503 3.95721 562.685 4.29528C562.87 4.63334 562.963 5.05593 562.963 5.56303V10.6738H561.233V9.62482H561.173C561.064 9.83694 560.91 10.0358 560.711 10.2214C560.516 10.4037 560.269 10.5512 559.97 10.6639C559.675 10.7733 559.329 10.8279 558.931 10.8279ZM559.399 9.5055C559.76 9.5055 560.073 9.43424 560.338 9.29173C560.603 9.14589 560.807 8.95366 560.95 8.71502C561.096 8.47638 561.168 8.2162 561.168 7.93448V7.03462C561.112 7.08103 561.016 7.12411 560.88 7.16388C560.748 7.20366 560.598 7.23846 560.433 7.26829C560.267 7.29812 560.103 7.32463 559.94 7.34783C559.778 7.37103 559.637 7.39092 559.518 7.40749C559.249 7.44395 559.009 7.50361 558.797 7.58647C558.585 7.66933 558.418 7.78533 558.295 7.93448C558.172 8.08031 558.111 8.26924 558.111 8.50124C558.111 8.83268 558.232 9.08292 558.474 9.25195C558.716 9.42099 559.024 9.5055 559.399 9.5055ZM568.586 3.03746V4.42951H564.196V3.03746H568.586ZM565.28 1.20792H567.08V8.37695C567.08 8.6189 567.116 8.80451 567.189 8.93377C567.265 9.05972 567.365 9.14589 567.487 9.19229C567.61 9.2387 567.746 9.2619 567.895 9.2619C568.008 9.2619 568.11 9.25361 568.203 9.23704C568.299 9.22047 568.372 9.20555 568.422 9.19229L568.725 10.5993C568.629 10.6324 568.492 10.6689 568.313 10.7086C568.137 10.7484 567.922 10.7716 567.666 10.7782C567.216 10.7915 566.81 10.7235 566.448 10.5744C566.087 10.4219 565.8 10.1866 565.588 9.86843C565.379 9.55025 565.277 9.15252 565.28 8.67525V1.20792ZM570.091 10.6738V3.03746H571.891V10.6738H570.091ZM570.996 1.95366C570.711 1.95366 570.466 1.8592 570.26 1.67028C570.055 1.47804 569.952 1.24769 569.952 0.979225C569.952 0.707445 570.055 0.477095 570.26 0.288174C570.466 0.0959394 570.711 -0.00017786 570.996 -0.00017786C571.284 -0.00017786 571.53 0.0959394 571.732 0.288174C571.937 0.477095 572.04 0.707445 572.04 0.979225C572.04 1.24769 571.937 1.47804 571.732 1.67028C571.53 1.8592 571.284 1.95366 570.996 1.95366ZM577.073 10.823C576.327 10.823 575.681 10.6589 575.134 10.3308C574.587 10.0027 574.163 9.54362 573.861 8.95366C573.563 8.3637 573.413 7.6743 573.413 6.88548C573.413 6.09665 573.563 5.4056 573.861 4.81232C574.163 4.21905 574.587 3.75834 575.134 3.43022C575.681 3.1021 576.327 2.93803 577.073 2.93803C577.818 2.93803 578.465 3.1021 579.011 3.43022C579.558 3.75834 579.981 4.21905 580.279 4.81232C580.581 5.4056 580.732 6.09665 580.732 6.88548C580.732 7.6743 580.581 8.3637 580.279 8.95366C579.981 9.54362 579.558 10.0027 579.011 10.3308C578.465 10.6589 577.818 10.823 577.073 10.823ZM577.083 9.38121C577.487 9.38121 577.825 9.27018 578.097 9.04812C578.369 8.82274 578.571 8.52113 578.703 8.14329C578.839 7.76545 578.907 7.34452 578.907 6.8805C578.907 6.41317 578.839 5.99059 578.703 5.61275C578.571 5.23159 578.369 4.92833 578.097 4.70295C577.825 4.47757 577.487 4.36488 577.083 4.36488C576.668 4.36488 576.324 4.47757 576.048 4.70295C575.777 4.92833 575.573 5.23159 575.437 5.61275C575.304 5.99059 575.238 6.41317 575.238 6.8805C575.238 7.34452 575.304 7.76545 575.437 8.14329C575.573 8.52113 575.777 8.82274 576.048 9.04812C576.324 9.27018 576.668 9.38121 577.083 9.38121ZM584.059 6.1994V10.6738H582.259V3.03746H583.979V4.33505H584.069C584.245 3.90749 584.525 3.56777 584.909 3.31587C585.297 3.06398 585.776 2.93803 586.346 2.93803C586.873 2.93803 587.332 3.05072 587.723 3.2761C588.117 3.50148 588.422 3.82795 588.638 4.2555C588.856 4.68306 588.964 5.20176 588.961 5.81161V10.6738H587.161V6.09002C587.161 5.5796 587.029 5.18022 586.763 4.89187C586.502 4.60352 586.139 4.45934 585.675 4.45934C585.36 4.45934 585.08 4.52894 584.834 4.66815C584.593 4.80404 584.402 5.00124 584.263 5.25977C584.127 5.51829 584.059 5.8315 584.059 6.1994Z" fill="black"/>
</svg>
