<svg width="353" height="14" viewBox="0 0 353 14" fill="none" xmlns="http://www.w3.org/2000/svg">
<path d="M5.90141 3.29102C5.85501 2.85683 5.65946 2.51876 5.31476 2.27681C4.97338 2.03486 4.52925 1.91388 3.98238 1.91388C3.59791 1.91388 3.26813 1.97189 2.99303 2.08789C2.71794 2.20389 2.50747 2.36133 2.36164 2.56019C2.21581 2.75906 2.14123 2.98609 2.13792 3.2413C2.13792 3.45342 2.18598 3.63737 2.28209 3.79315C2.38153 3.94892 2.51576 4.0815 2.68479 4.19087C2.85383 4.29693 3.04109 4.38642 3.24658 4.45934C3.45207 4.53226 3.65922 4.59357 3.86803 4.64329L4.82258 4.88192C5.20705 4.97141 5.5766 5.09239 5.93124 5.24485C6.2892 5.39731 6.60903 5.58955 6.89076 5.82156C7.1758 6.05356 7.40117 6.33363 7.56689 6.66175C7.73261 6.98988 7.81547 7.37435 7.81547 7.81516C7.81547 8.41175 7.66301 8.93709 7.35809 9.39116C7.05316 9.84192 6.61235 10.1949 6.03564 10.4501C5.46225 10.702 4.76789 10.8279 3.95255 10.8279C3.16041 10.8279 2.47267 10.7053 1.88934 10.46C1.30932 10.2148 0.855247 9.85683 0.527122 9.38619C0.202311 8.91554 0.0266483 8.34215 0.000133187 7.66602H1.81476C1.84128 8.02066 1.95065 8.31564 2.14289 8.55096C2.33512 8.78628 2.58536 8.96194 2.8936 9.07795C3.20515 9.19395 3.55316 9.25195 3.93763 9.25195C4.33868 9.25195 4.69 9.19229 4.99161 9.07298C5.29653 8.95034 5.53517 8.78131 5.70752 8.56587C5.87987 8.34712 5.9677 8.09192 5.97101 7.80025C5.9677 7.5351 5.88981 7.31635 5.73735 7.144C5.58489 6.96834 5.37111 6.8225 5.09601 6.7065C4.82423 6.58718 4.50605 6.48112 4.14147 6.38832L2.98309 6.09002C2.14455 5.87459 1.48167 5.54812 0.994451 5.11062C0.51055 4.6698 0.268599 4.08481 0.268599 3.35565C0.268599 2.75574 0.431004 2.23041 0.755815 1.77965C1.08394 1.32889 1.52973 0.979226 2.09317 0.730646C2.65662 0.478752 3.29464 0.352805 4.00724 0.352805C4.72977 0.352805 5.36282 0.478752 5.90638 0.730646C6.45326 0.979226 6.88247 1.32558 7.19403 1.76971C7.50558 2.21052 7.66633 2.71763 7.67627 3.29102H5.90141ZM12.761 10.823C11.9953 10.823 11.3341 10.6639 10.7773 10.3457C10.2238 10.0242 9.7979 9.57013 9.4996 8.98349C9.20131 8.39352 9.05216 7.69916 9.05216 6.90039C9.05216 6.11488 9.20131 5.42549 9.4996 4.83221C9.80121 4.23562 10.2221 3.7716 10.7624 3.44016C11.3026 3.10541 11.9373 2.93803 12.6665 2.93803C13.1371 2.93803 13.5813 3.01426 13.9989 3.16673C14.4198 3.31587 14.791 3.54788 15.1125 3.86275C15.4373 4.17762 15.6925 4.57866 15.8782 5.06587C16.0638 5.54978 16.1566 6.12648 16.1566 6.79599V7.34783H9.89733V6.13477H14.4314C14.4281 5.79007 14.3535 5.48349 14.2077 5.21502C14.0619 4.94324 13.858 4.72946 13.5962 4.57369C13.3377 4.41791 13.0361 4.34002 12.6914 4.34002C12.3235 4.34002 12.0003 4.42951 11.7219 4.60849C11.4435 4.78415 11.2264 5.01616 11.0706 5.30451C10.9182 5.58955 10.8403 5.90276 10.837 6.24414V7.30309C10.837 7.74722 10.9182 8.12837 11.0806 8.44656C11.243 8.76142 11.47 9.00337 11.7617 9.17241C12.0533 9.33813 12.3947 9.42099 12.7858 9.42099C13.0477 9.42099 13.2846 9.38453 13.4968 9.31161C13.7089 9.23538 13.8928 9.12435 14.0486 8.97852C14.2044 8.83268 14.322 8.65205 14.4016 8.43661L16.082 8.62553C15.9759 9.06966 15.7737 9.45745 15.4755 9.78888C15.1805 10.117 14.8026 10.3722 14.3419 10.5545C13.8812 10.7335 13.3542 10.823 12.761 10.823ZM21.0101 10.823C20.2478 10.823 19.5932 10.6556 19.0463 10.3208C18.5027 9.98609 18.0835 9.52373 17.7885 8.93377C17.4968 8.34049 17.351 7.65773 17.351 6.88548C17.351 6.10991 17.5001 5.42549 17.7984 4.83221C18.0967 4.23562 18.5177 3.7716 19.0612 3.44016C19.6081 3.10541 20.2544 2.93803 21.0001 2.93803C21.6199 2.93803 22.1685 3.05238 22.6457 3.28107C23.1263 3.50645 23.5091 3.82629 23.7942 4.24059C24.0792 4.65157 24.2416 5.13216 24.2814 5.68235H22.5612C22.4916 5.31445 22.3259 5.00787 22.0641 4.76261C21.8055 4.51403 21.4592 4.38974 21.025 4.38974C20.6571 4.38974 20.3339 4.48917 20.0555 4.68803C19.7771 4.88358 19.56 5.16531 19.4043 5.5332C19.2518 5.9011 19.1756 6.34192 19.1756 6.85565C19.1756 7.37601 19.2518 7.82345 19.4043 8.19798C19.5567 8.56919 19.7705 8.85588 20.0456 9.05806C20.324 9.25692 20.6505 9.35636 21.025 9.35636C21.2901 9.35636 21.5271 9.30664 21.7359 9.20721C21.9481 9.10446 22.1254 8.95697 22.2679 8.76474C22.4104 8.5725 22.5082 8.33884 22.5612 8.06374H24.2814C24.2383 8.60399 24.0792 9.08292 23.8041 9.50053C23.529 9.91483 23.1545 10.2396 22.6805 10.475C22.2066 10.707 21.6498 10.823 21.0101 10.823ZM29.5724 3.03746V4.42951H25.1825V3.03746H29.5724ZM26.2663 1.20792H28.066V8.37695C28.066 8.6189 28.1025 8.80451 28.1754 8.93377C28.2516 9.05972 28.351 9.14589 28.4737 9.19229C28.5963 9.2387 28.7322 9.2619 28.8813 9.2619C28.994 9.2619 29.0968 9.25361 29.1896 9.23704C29.2857 9.22047 29.3586 9.20555 29.4083 9.19229L29.7116 10.5993C29.6155 10.6324 29.4779 10.6689 29.299 10.7086C29.1233 10.7484 28.9079 10.7716 28.6527 10.7782C28.2019 10.7915 27.7959 10.7235 27.4346 10.5744C27.0733 10.4219 26.7867 10.1866 26.5745 9.86843C26.3657 9.55025 26.263 9.15252 26.2663 8.67525V1.20792ZM31.0775 10.6738V3.03746H32.8773V10.6738H31.0775ZM31.9824 1.95366C31.6973 1.95366 31.4521 1.8592 31.2466 1.67028C31.0411 1.47804 30.9383 1.24769 30.9383 0.979225C30.9383 0.707445 31.0411 0.477095 31.2466 0.288174C31.4521 0.0959394 31.6973 -0.00017786 31.9824 -0.00017786C32.2707 -0.00017786 32.516 0.0959394 32.7182 0.288174C32.9237 0.477095 33.0264 0.707445 33.0264 0.979225C33.0264 1.24769 32.9237 1.47804 32.7182 1.67028C32.516 1.8592 32.2707 1.95366 31.9824 1.95366ZM38.0589 10.823C37.3132 10.823 36.6669 10.6589 36.12 10.3308C35.5731 10.0027 35.1489 9.54362 34.8473 8.95366C34.549 8.3637 34.3998 7.6743 34.3998 6.88548C34.3998 6.09665 34.549 5.4056 34.8473 4.81232C35.1489 4.21905 35.5731 3.75834 36.12 3.43022C36.6669 3.1021 37.3132 2.93803 38.0589 2.93803C38.8046 2.93803 39.4509 3.1021 39.9978 3.43022C40.5447 3.75834 40.9673 4.21905 41.2656 4.81232C41.5672 5.4056 41.718 6.09665 41.718 6.88548C41.718 7.6743 41.5672 8.3637 41.2656 8.95366C40.9673 9.54362 40.5447 10.0027 39.9978 10.3308C39.4509 10.6589 38.8046 10.823 38.0589 10.823ZM38.0688 9.38121C38.4732 9.38121 38.8113 9.27018 39.0831 9.04812C39.3548 8.82274 39.557 8.52113 39.6896 8.14329C39.8255 7.76545 39.8934 7.34452 39.8934 6.8805C39.8934 6.41317 39.8255 5.99059 39.6896 5.61275C39.557 5.23159 39.3548 4.92833 39.0831 4.70295C38.8113 4.47757 38.4732 4.36488 38.0688 4.36488C37.6545 4.36488 37.3099 4.47757 37.0348 4.70295C36.763 4.92833 36.5591 5.23159 36.4233 5.61275C36.2907 5.99059 36.2244 6.41317 36.2244 6.8805C36.2244 7.34452 36.2907 7.76545 36.4233 8.14329C36.5591 8.52113 36.763 8.82274 37.0348 9.04812C37.3099 9.27018 37.6545 9.38121 38.0688 9.38121ZM45.0452 6.1994V10.6738H43.2455V3.03746H44.9657V4.33505H45.0552C45.2308 3.90749 45.5109 3.56777 45.8954 3.31587C46.2832 3.06398 46.7621 2.93803 47.3322 2.93803C47.8592 2.93803 48.3182 3.05072 48.7093 3.2761C49.1037 3.50148 49.4086 3.82795 49.6241 4.2555C49.8428 4.68306 49.9505 5.20176 49.9472 5.81161V10.6738H48.1475V6.09002C48.1475 5.5796 48.0149 5.18022 47.7498 4.89187C47.4879 4.60352 47.125 4.45934 46.661 4.45934C46.3461 4.45934 46.0661 4.52894 45.8208 4.66815C45.5789 4.80404 45.3883 5.00124 45.2491 5.25977C45.1132 5.51829 45.0452 5.8315 45.0452 6.1994ZM58.993 10.8677C58.1744 10.8677 57.4717 10.6606 56.8851 10.2463C56.3017 9.82866 55.8526 9.2271 55.5378 8.44158C55.2262 7.65276 55.0704 6.70318 55.0704 5.59286C55.0738 4.48254 55.2312 3.53794 55.5427 2.75906C55.8576 1.97686 56.3067 1.38027 56.89 0.969283C57.4767 0.558298 58.1777 0.352805 58.993 0.352805C59.8084 0.352805 60.5094 0.558298 61.096 0.969283C61.6827 1.38027 62.1318 1.97686 62.4433 2.75906C62.7582 3.54125 62.9156 4.48585 62.9156 5.59286C62.9156 6.7065 62.7582 7.65773 62.4433 8.44656C62.1318 9.23207 61.6827 9.83197 61.096 10.2463C60.5127 10.6606 59.8117 10.8677 58.993 10.8677ZM58.993 9.31161C59.6294 9.31161 60.1315 8.9984 60.4994 8.37198C60.8706 7.74225 61.0562 6.81587 61.0562 5.59286C61.0562 4.78415 60.9717 4.1047 60.8027 3.55451C60.6337 3.00432 60.395 2.59002 60.0868 2.31161C59.7785 2.02989 59.414 1.88903 58.993 1.88903C58.36 1.88903 57.8595 2.20389 57.4916 2.83363C57.1237 3.46005 56.9381 4.37979 56.9348 5.59286C56.9315 6.40489 57.0127 7.08765 57.1784 7.64116C57.3474 8.19466 57.5861 8.61228 57.8943 8.894C58.2025 9.17241 58.5688 9.31161 58.993 9.31161ZM64.3835 8.78462V7.318L68.7038 0.49201H69.9268V2.58008H69.1811L66.2727 7.18874V7.26829H72.3032V8.78462H64.3835ZM69.2407 10.6738V8.33718L69.2606 7.68093V0.49201H71.0007V10.6738H69.2407ZM75.0202 9.45082C74.7186 9.45082 74.4601 9.34476 74.2446 9.13263C74.0292 8.9172 73.9231 8.65868 73.9264 8.35707C73.9231 8.05877 74.0292 7.80356 74.2446 7.59144C74.4601 7.37932 74.7186 7.27326 75.0202 7.27326C75.3119 7.27326 75.5654 7.37932 75.7809 7.59144C75.9996 7.80356 76.1106 8.05877 76.1139 8.35707C76.1106 8.55924 76.0576 8.74319 75.9549 8.90891C75.8554 9.07463 75.7228 9.20721 75.5571 9.30664C75.3947 9.40276 75.2157 9.45082 75.0202 9.45082ZM75.0202 4.40465C74.7186 4.40465 74.4601 4.29859 74.2446 4.08647C74.0292 3.87103 73.9231 3.61251 73.9264 3.3109C73.9231 3.01261 74.0292 2.7574 74.2446 2.54528C74.4601 2.32984 74.7186 2.22212 75.0202 2.22212C75.3119 2.22212 75.5654 2.32984 75.7809 2.54528C75.9996 2.7574 76.1106 3.01261 76.1139 3.3109C76.1106 3.50977 76.0576 3.69206 75.9549 3.85778C75.8554 4.0235 75.7228 4.15607 75.5571 4.2555C75.3947 4.35494 75.2157 4.40465 75.0202 4.40465ZM81.5243 10.6738V0.49201H83.3687V4.80238H88.0868V0.49201H89.9362V10.6738H88.0868V6.34854H83.3687V10.6738H81.5243ZM91.8627 10.6738V3.03746H93.6624V10.6738H91.8627ZM92.7675 1.95366C92.4825 1.95366 92.2372 1.8592 92.0317 1.67028C91.8262 1.47804 91.7235 1.24769 91.7235 0.979225C91.7235 0.707445 91.8262 0.477095 92.0317 0.288174C92.2372 0.0959394 92.4825 -0.00017786 92.7675 -0.00017786C93.0559 -0.00017786 93.3012 0.0959394 93.5033 0.288174C93.7088 0.477095 93.8116 0.707445 93.8116 0.979225C93.8116 1.24769 93.7088 1.47804 93.5033 1.67028C93.3012 1.8592 93.0559 1.95366 92.7675 1.95366ZM98.8341 13.6966C98.1878 13.6966 97.6326 13.6087 97.1686 13.4331C96.7046 13.2607 96.3318 13.0287 96.05 12.737C95.7683 12.4454 95.5728 12.1222 95.4634 11.7676L97.0841 11.3748C97.157 11.524 97.2631 11.6715 97.4023 11.8173C97.5415 11.9664 97.7288 12.0891 97.9641 12.1852C98.2027 12.2846 98.5027 12.3343 98.8639 12.3343C99.3744 12.3343 99.7969 12.21 100.132 11.9615C100.466 11.7162 100.634 11.3118 100.634 10.7484V9.30167H100.544C100.452 9.48728 100.316 9.67785 100.137 9.8734C99.961 10.069 99.7273 10.233 99.4357 10.3656C99.1473 10.4982 98.7844 10.5645 98.3469 10.5645C97.7603 10.5645 97.2283 10.4269 96.751 10.1518C96.2771 9.8734 95.8992 9.4591 95.6175 8.90891C95.3391 8.35541 95.1999 7.6627 95.1999 6.83079C95.1999 5.99225 95.3391 5.28462 95.6175 4.70792C95.8992 4.1279 96.2787 3.68874 96.756 3.39045C97.2333 3.08884 97.7652 2.93803 98.3519 2.93803C98.7993 2.93803 99.1672 3.01426 99.4556 3.16673C99.7472 3.31587 99.9792 3.49651 100.152 3.70863C100.324 3.91744 100.455 4.11464 100.544 4.30025H100.644V3.03746H102.419V10.7981C102.419 11.4511 102.263 11.9913 101.951 12.4189C101.64 12.8464 101.214 13.1663 100.674 13.3784C100.133 13.5905 99.5202 13.6966 98.8341 13.6966ZM98.849 9.15252C99.2302 9.15252 99.555 9.05972 99.8235 8.87411C100.092 8.68851 100.296 8.4217 100.435 8.07369C100.574 7.72567 100.644 7.30806 100.644 6.82085C100.644 6.34026 100.574 5.91933 100.435 5.55806C100.299 5.19679 100.097 4.91673 99.8284 4.71786C99.5633 4.51568 99.2368 4.41459 98.849 4.41459C98.448 4.41459 98.1132 4.519 97.8448 4.72781C97.5763 4.93661 97.3741 5.22331 97.2382 5.58789C97.1023 5.94916 97.0344 6.36014 97.0344 6.82085C97.0344 7.28817 97.1023 7.6975 97.2382 8.04883C97.3774 8.39684 97.5813 8.66862 97.8497 8.86417C98.1215 9.0564 98.4546 9.15252 98.849 9.15252ZM106.063 6.1994V10.6738H104.263V0.49201H106.023V4.33505H106.113C106.292 3.90418 106.568 3.56445 106.943 3.31587C107.321 3.06398 107.801 2.93803 108.385 2.93803C108.915 2.93803 109.377 3.04906 109.772 3.27113C110.166 3.49319 110.471 3.818 110.686 4.24556C110.905 4.67312 111.015 5.19513 111.015 5.81161V10.6738H109.215V6.09002C109.215 5.57629 109.082 5.17691 108.817 4.89187C108.555 4.60352 108.187 4.45934 107.713 4.45934C107.395 4.45934 107.11 4.52894 106.858 4.66815C106.61 4.80404 106.414 5.00124 106.272 5.25977C106.132 5.51829 106.063 5.8315 106.063 6.1994ZM116.401 10.6738V0.49201H118.246V9.12766H122.73V10.6738H116.401ZM127.632 10.823C126.866 10.823 126.205 10.6639 125.648 10.3457C125.095 10.0242 124.669 9.57013 124.371 8.98349C124.072 8.39352 123.923 7.69916 123.923 6.90039C123.923 6.11488 124.072 5.42549 124.371 4.83221C124.672 4.23562 125.093 3.7716 125.633 3.44016C126.174 3.10541 126.808 2.93803 127.538 2.93803C128.008 2.93803 128.452 3.01426 128.87 3.16673C129.291 3.31587 129.662 3.54788 129.984 3.86275C130.308 4.17762 130.564 4.57866 130.749 5.06587C130.935 5.54978 131.028 6.12648 131.028 6.79599V7.34783H124.768V6.13477H129.303C129.299 5.79007 129.225 5.48349 129.079 5.21502C128.933 4.94324 128.729 4.72946 128.467 4.57369C128.209 4.41791 127.907 4.34002 127.562 4.34002C127.195 4.34002 126.871 4.42951 126.593 4.60849C126.315 4.78415 126.097 5.01616 125.942 5.30451C125.789 5.58955 125.711 5.90276 125.708 6.24414V7.30309C125.708 7.74722 125.789 8.12837 125.952 8.44656C126.114 8.76142 126.341 9.00337 126.633 9.17241C126.924 9.33813 127.266 9.42099 127.657 9.42099C127.919 9.42099 128.156 9.38453 128.368 9.31161C128.58 9.23538 128.764 9.12435 128.92 8.97852C129.075 8.83268 129.193 8.65205 129.273 8.43661L130.953 8.62553C130.847 9.06966 130.645 9.45745 130.347 9.78888C130.052 10.117 129.674 10.3722 129.213 10.5545C128.752 10.7335 128.225 10.823 127.632 10.823ZM139.152 3.03746L136.433 10.6738H134.444L131.725 3.03746H133.644L135.399 8.71005H135.478L137.238 3.03746H139.152ZM143.519 10.823C142.753 10.823 142.092 10.6639 141.535 10.3457C140.982 10.0242 140.556 9.57013 140.257 8.98349C139.959 8.39352 139.81 7.69916 139.81 6.90039C139.81 6.11488 139.959 5.42549 140.257 4.83221C140.559 4.23562 140.98 3.7716 141.52 3.44016C142.06 3.10541 142.695 2.93803 143.424 2.93803C143.895 2.93803 144.339 3.01426 144.757 3.16673C145.178 3.31587 145.549 3.54788 145.87 3.86275C146.195 4.17762 146.45 4.57866 146.636 5.06587C146.822 5.54978 146.914 6.12648 146.914 6.79599V7.34783H140.655V6.13477H145.189C145.186 5.79007 145.111 5.48349 144.966 5.21502C144.82 4.94324 144.616 4.72946 144.354 4.57369C144.095 4.41791 143.794 4.34002 143.449 4.34002C143.081 4.34002 142.758 4.42951 142.48 4.60849C142.201 4.78415 141.984 5.01616 141.828 5.30451C141.676 5.58955 141.598 5.90276 141.595 6.24414V7.30309C141.595 7.74722 141.676 8.12837 141.838 8.44656C142.001 8.76142 142.228 9.00337 142.519 9.17241C142.811 9.33813 143.153 9.42099 143.544 9.42099C143.805 9.42099 144.042 9.38453 144.255 9.31161C144.467 9.23538 144.651 9.12435 144.806 8.97852C144.962 8.83268 145.08 8.65205 145.159 8.43661L146.84 8.62553C146.734 9.06966 146.532 9.45745 146.233 9.78888C145.938 10.117 145.56 10.3722 145.1 10.5545C144.639 10.7335 144.112 10.823 143.519 10.823ZM150.237 0.49201V10.6738H148.437V0.49201H150.237ZM161.173 3.29102C161.126 2.85683 160.931 2.51876 160.586 2.27681C160.245 2.03486 159.801 1.91388 159.254 1.91388C158.869 1.91388 158.54 1.97189 158.265 2.08789C157.989 2.20389 157.779 2.36133 157.633 2.56019C157.487 2.75906 157.413 2.98609 157.409 3.2413C157.409 3.45342 157.457 3.63737 157.554 3.79315C157.653 3.94892 157.787 4.0815 157.956 4.19087C158.125 4.29693 158.313 4.38642 158.518 4.45934C158.724 4.53226 158.931 4.59357 159.14 4.64329L160.094 4.88192C160.479 4.97141 160.848 5.09239 161.203 5.24485C161.561 5.39731 161.881 5.58955 162.162 5.82156C162.447 6.05356 162.673 6.33363 162.838 6.66175C163.004 6.98988 163.087 7.37435 163.087 7.81516C163.087 8.41175 162.934 8.93709 162.63 9.39116C162.325 9.84192 161.884 10.1949 161.307 10.4501C160.734 10.702 160.039 10.8279 159.224 10.8279C158.432 10.8279 157.744 10.7053 157.161 10.46C156.581 10.2148 156.127 9.85683 155.799 9.38619C155.474 8.91554 155.298 8.34215 155.272 7.66602H157.086C157.113 8.02066 157.222 8.31564 157.414 8.55096C157.607 8.78628 157.857 8.96194 158.165 9.07795C158.477 9.19395 158.825 9.25195 159.209 9.25195C159.61 9.25195 159.961 9.19229 160.263 9.07298C160.568 8.95034 160.807 8.78131 160.979 8.56587C161.151 8.34712 161.239 8.09192 161.242 7.80025C161.239 7.5351 161.161 7.31635 161.009 7.144C160.856 6.96834 160.643 6.8225 160.367 6.7065C160.096 6.58718 159.778 6.48112 159.413 6.38832L158.255 6.09002C157.416 5.87459 156.753 5.54812 156.266 5.11062C155.782 4.6698 155.54 4.08481 155.54 3.35565C155.54 2.75574 155.702 2.23041 156.027 1.77965C156.355 1.32889 156.801 0.979226 157.365 0.730646C157.928 0.478752 158.566 0.352805 159.279 0.352805C160.001 0.352805 160.634 0.478752 161.178 0.730646C161.725 0.979226 162.154 1.32558 162.466 1.76971C162.777 2.21052 162.938 2.71763 162.948 3.29102H161.173ZM165.77 13.5375C165.525 13.5375 165.298 13.5176 165.089 13.4778C164.884 13.4413 164.72 13.3983 164.597 13.3485L165.015 11.9466C165.277 12.0228 165.51 12.0592 165.716 12.0559C165.921 12.0526 166.102 11.988 166.258 11.862C166.417 11.7394 166.551 11.5339 166.66 11.2456L166.814 10.8329L164.045 3.03746H165.954L167.714 8.80451H167.794L169.559 3.03746H171.473L168.415 11.5985C168.273 12.0029 168.084 12.3493 167.848 12.6376C167.613 12.9293 167.325 13.1513 166.983 13.3038C166.645 13.4596 166.241 13.5375 165.77 13.5375ZM178.754 5.05593L177.113 5.23491C177.067 5.06919 176.985 4.91341 176.869 4.76758C176.757 4.62174 176.604 4.50408 176.412 4.41459C176.22 4.32511 175.985 4.28036 175.706 4.28036C175.332 4.28036 175.017 4.36156 174.761 4.52397C174.51 4.68638 174.385 4.89684 174.389 5.15536C174.385 5.37743 174.467 5.55806 174.632 5.69727C174.801 5.83647 175.08 5.95082 175.467 6.04031L176.77 6.31871C177.493 6.47449 178.029 6.72141 178.381 7.05948C178.735 7.39755 178.914 7.84002 178.918 8.3869C178.914 8.86748 178.774 9.29173 178.495 9.65962C178.22 10.0242 177.837 10.3092 177.347 10.5147C176.856 10.7202 176.293 10.823 175.656 10.823C174.722 10.823 173.969 10.6274 173.399 10.2363C172.829 9.84192 172.489 9.29338 172.38 8.59073L174.135 8.4217C174.215 8.76639 174.384 9.02657 174.642 9.20224C174.901 9.3779 175.237 9.46573 175.651 9.46573C176.079 9.46573 176.422 9.3779 176.681 9.20224C176.942 9.02657 177.073 8.80948 177.073 8.55096C177.073 8.33221 176.989 8.15157 176.82 8.00906C176.654 7.86654 176.395 7.75716 176.044 7.68093L174.742 7.40749C174.009 7.25503 173.467 6.99817 173.116 6.6369C172.765 6.27231 172.591 5.81161 172.594 5.25479C172.591 4.78415 172.718 4.37648 172.977 4.03178C173.239 3.68377 173.601 3.41531 174.065 3.22638C174.533 3.03415 175.071 2.93803 175.681 2.93803C176.576 2.93803 177.28 3.12861 177.794 3.50977C178.311 3.89092 178.631 4.40631 178.754 5.05593ZM184.215 3.03746V4.42951H179.825V3.03746H184.215ZM180.909 1.20792H182.709V8.37695C182.709 8.6189 182.745 8.80451 182.818 8.93377C182.894 9.05972 182.994 9.14589 183.116 9.19229C183.239 9.2387 183.375 9.2619 183.524 9.2619C183.637 9.2619 183.739 9.25361 183.832 9.23704C183.928 9.22047 184.001 9.20555 184.051 9.19229L184.354 10.5993C184.258 10.6324 184.121 10.6689 183.942 10.7086C183.766 10.7484 183.55 10.7716 183.295 10.7782C182.844 10.7915 182.438 10.7235 182.077 10.5744C181.716 10.4219 181.429 10.1866 181.217 9.86843C181.008 9.55025 180.906 9.15252 180.909 8.67525V1.20792ZM189.019 10.823C188.253 10.823 187.592 10.6639 187.035 10.3457C186.482 10.0242 186.056 9.57013 185.757 8.98349C185.459 8.39352 185.31 7.69916 185.31 6.90039C185.31 6.11488 185.459 5.42549 185.757 4.83221C186.059 4.23562 186.48 3.7716 187.02 3.44016C187.56 3.10541 188.195 2.93803 188.924 2.93803C189.395 2.93803 189.839 3.01426 190.257 3.16673C190.678 3.31587 191.049 3.54788 191.37 3.86275C191.695 4.17762 191.95 4.57866 192.136 5.06587C192.322 5.54978 192.414 6.12648 192.414 6.79599V7.34783H186.155V6.13477H190.689C190.686 5.79007 190.611 5.48349 190.466 5.21502C190.32 4.94324 190.116 4.72946 189.854 4.57369C189.595 4.41791 189.294 4.34002 188.949 4.34002C188.581 4.34002 188.258 4.42951 187.98 4.60849C187.701 4.78415 187.484 5.01616 187.328 5.30451C187.176 5.58955 187.098 5.90276 187.095 6.24414V7.30309C187.095 7.74722 187.176 8.12837 187.338 8.44656C187.501 8.76142 187.728 9.00337 188.019 9.17241C188.311 9.33813 188.653 9.42099 189.044 9.42099C189.305 9.42099 189.542 9.38453 189.755 9.31161C189.967 9.23538 190.151 9.12435 190.306 8.97852C190.462 8.83268 190.58 8.65205 190.659 8.43661L192.34 8.62553C192.234 9.06966 192.032 9.45745 191.733 9.78888C191.438 10.117 191.06 10.3722 190.6 10.5545C190.139 10.7335 189.612 10.823 189.019 10.823ZM193.937 10.6738V3.03746H195.657V4.33505H195.747C195.906 3.89755 196.169 3.55617 196.537 3.3109C196.905 3.06232 197.344 2.93803 197.855 2.93803C198.372 2.93803 198.807 3.06398 199.162 3.31587C199.52 3.56445 199.772 3.90418 199.918 4.33505H199.997C200.166 3.91081 200.451 3.57274 200.852 3.32085C201.257 3.06564 201.736 2.93803 202.289 2.93803C202.992 2.93803 203.565 3.1601 204.009 3.60423C204.453 4.04835 204.676 4.69632 204.676 5.54812V10.6738H202.871V5.82653C202.871 5.35257 202.745 5.00621 202.493 4.78746C202.241 4.5654 201.933 4.45437 201.568 4.45437C201.134 4.45437 200.794 4.59026 200.549 4.86204C200.307 5.1305 200.186 5.48017 200.186 5.91104V10.6738H198.421V5.75195C198.421 5.35754 198.302 5.04267 198.063 4.80735C197.828 4.57203 197.52 4.45437 197.139 4.45437C196.88 4.45437 196.645 4.52066 196.433 4.65323C196.221 4.78249 196.052 4.96644 195.926 5.20508C195.8 5.4404 195.737 5.71549 195.737 6.03036V10.6738H193.937ZM211.361 10.6738H209.392L212.977 0.49201H215.254L218.843 10.6738H216.875L214.155 2.58008H214.076L211.361 10.6738ZM211.426 6.68164H216.795V8.16317H211.426V6.68164ZM220.105 10.6738V3.03746H221.85V4.31019H221.929C222.069 3.86938 222.307 3.52965 222.645 3.29102C222.987 3.04906 223.376 2.92809 223.814 2.92809C223.913 2.92809 224.024 2.93306 224.147 2.943C224.273 2.94963 224.377 2.96123 224.46 2.97781V4.63334C224.384 4.60683 224.263 4.58363 224.097 4.56374C223.935 4.54054 223.777 4.52894 223.625 4.52894C223.297 4.52894 223.002 4.6002 222.74 4.74272C222.481 4.88192 222.277 5.07582 222.128 5.3244C221.979 5.57298 221.905 5.85967 221.905 6.18448V10.6738H220.105ZM228.672 10.823C227.91 10.823 227.255 10.6556 226.708 10.3208C226.165 9.98609 225.746 9.52373 225.451 8.93377C225.159 8.34049 225.013 7.65773 225.013 6.88548C225.013 6.10991 225.162 5.42549 225.461 4.83221C225.759 4.23562 226.18 3.7716 226.723 3.44016C227.27 3.10541 227.917 2.93803 228.662 2.93803C229.282 2.93803 229.831 3.05238 230.308 3.28107C230.788 3.50645 231.171 3.82629 231.456 4.24059C231.741 4.65157 231.904 5.13216 231.943 5.68235H230.223C230.154 5.31445 229.988 5.00787 229.726 4.76261C229.468 4.51403 229.121 4.38974 228.687 4.38974C228.319 4.38974 227.996 4.48917 227.718 4.68803C227.439 4.88358 227.222 5.16531 227.066 5.5332C226.914 5.9011 226.838 6.34192 226.838 6.85565C226.838 7.37601 226.914 7.82345 227.066 8.19798C227.219 8.56919 227.433 8.85588 227.708 9.05806C227.986 9.25692 228.313 9.35636 228.687 9.35636C228.952 9.35636 229.189 9.30664 229.398 9.20721C229.61 9.10446 229.787 8.95697 229.93 8.76474C230.073 8.5725 230.17 8.33884 230.223 8.06374H231.943C231.9 8.60399 231.741 9.08292 231.466 9.50053C231.191 9.91483 230.817 10.2396 230.343 10.475C229.869 10.707 229.312 10.823 228.672 10.823ZM235.221 6.1994V10.6738H233.421V0.49201H235.181V4.33505H235.271C235.45 3.90418 235.726 3.56445 236.101 3.31587C236.479 3.06398 236.959 2.93803 237.543 2.93803C238.073 2.93803 238.535 3.04906 238.93 3.27113C239.324 3.49319 239.629 3.818 239.845 4.24556C240.063 4.67312 240.173 5.19513 240.173 5.81161V10.6738H238.373V6.09002C238.373 5.57629 238.24 5.17691 237.975 4.89187C237.713 4.60352 237.346 4.45934 236.872 4.45934C236.553 4.45934 236.268 4.52894 236.016 4.66815C235.768 4.80404 235.572 5.00124 235.43 5.25977C235.291 5.51829 235.221 5.8315 235.221 6.1994ZM242.007 10.6738V3.03746H243.807V10.6738H242.007ZM242.912 1.95366C242.627 1.95366 242.382 1.8592 242.176 1.67028C241.971 1.47804 241.868 1.24769 241.868 0.979225C241.868 0.707445 241.971 0.477095 242.176 0.288174C242.382 0.0959394 242.627 -0.00017786 242.912 -0.00017786C243.2 -0.00017786 243.446 0.0959394 243.648 0.288174C243.853 0.477095 243.956 0.707445 243.956 0.979225C243.956 1.24769 243.853 1.47804 243.648 1.67028C243.446 1.8592 243.2 1.95366 242.912 1.95366ZM249.471 3.03746V4.42951H245.081V3.03746H249.471ZM246.165 1.20792H247.964V8.37695C247.964 8.6189 248.001 8.80451 248.074 8.93377C248.15 9.05972 248.249 9.14589 248.372 9.19229C248.495 9.2387 248.631 9.2619 248.78 9.2619C248.892 9.2619 248.995 9.25361 249.088 9.23704C249.184 9.22047 249.257 9.20555 249.307 9.19229L249.61 10.5993C249.514 10.6324 249.376 10.6689 249.197 10.7086C249.022 10.7484 248.806 10.7716 248.551 10.7782C248.1 10.7915 247.694 10.7235 247.333 10.5744C246.972 10.4219 246.685 10.1866 246.473 9.86843C246.264 9.55025 246.161 9.15252 246.165 8.67525V1.20792ZM254.275 10.823C253.509 10.823 252.848 10.6639 252.291 10.3457C251.737 10.0242 251.312 9.57013 251.013 8.98349C250.715 8.39352 250.566 7.69916 250.566 6.90039C250.566 6.11488 250.715 5.42549 251.013 4.83221C251.315 4.23562 251.736 3.7716 252.276 3.44016C252.816 3.10541 253.451 2.93803 254.18 2.93803C254.651 2.93803 255.095 3.01426 255.513 3.16673C255.933 3.31587 256.305 3.54788 256.626 3.86275C256.951 4.17762 257.206 4.57866 257.392 5.06587C257.577 5.54978 257.67 6.12648 257.67 6.79599V7.34783H251.411V6.13477H255.945C255.942 5.79007 255.867 5.48349 255.721 5.21502C255.576 4.94324 255.372 4.72946 255.11 4.57369C254.851 4.41791 254.55 4.34002 254.205 4.34002C253.837 4.34002 253.514 4.42951 253.236 4.60849C252.957 4.78415 252.74 5.01616 252.584 5.30451C252.432 5.58955 252.354 5.90276 252.351 6.24414V7.30309C252.351 7.74722 252.432 8.12837 252.594 8.44656C252.757 8.76142 252.984 9.00337 253.275 9.17241C253.567 9.33813 253.908 9.42099 254.299 9.42099C254.561 9.42099 254.798 9.38453 255.01 9.31161C255.223 9.23538 255.407 9.12435 255.562 8.97852C255.718 8.83268 255.836 8.65205 255.915 8.43661L257.596 8.62553C257.49 9.06966 257.287 9.45745 256.989 9.78888C256.694 10.117 256.316 10.3722 255.856 10.5545C255.395 10.7335 254.868 10.823 254.275 10.823ZM262.524 10.823C261.761 10.823 261.107 10.6556 260.56 10.3208C260.016 9.98609 259.597 9.52373 259.302 8.93377C259.01 8.34049 258.865 7.65773 258.865 6.88548C258.865 6.10991 259.014 5.42549 259.312 4.83221C259.61 4.23562 260.031 3.7716 260.575 3.44016C261.122 3.10541 261.768 2.93803 262.514 2.93803C263.134 2.93803 263.682 3.05238 264.159 3.28107C264.64 3.50645 265.023 3.82629 265.308 4.24059C265.593 4.65157 265.755 5.13216 265.795 5.68235H264.075C264.005 5.31445 263.84 5.00787 263.578 4.76261C263.319 4.51403 262.973 4.38974 262.539 4.38974C262.171 4.38974 261.848 4.48917 261.569 4.68803C261.291 4.88358 261.074 5.16531 260.918 5.5332C260.765 5.9011 260.689 6.34192 260.689 6.85565C260.689 7.37601 260.765 7.82345 260.918 8.19798C261.07 8.56919 261.284 8.85588 261.559 9.05806C261.838 9.25692 262.164 9.35636 262.539 9.35636C262.804 9.35636 263.041 9.30664 263.25 9.20721C263.462 9.10446 263.639 8.95697 263.782 8.76474C263.924 8.5725 264.022 8.33884 264.075 8.06374H265.795C265.752 8.60399 265.593 9.08292 265.318 9.50053C265.043 9.91483 264.668 10.2396 264.194 10.475C263.72 10.707 263.163 10.823 262.524 10.823ZM271.086 3.03746V4.42951H266.696V3.03746H271.086ZM267.78 1.20792H269.58V8.37695C269.58 8.6189 269.616 8.80451 269.689 8.93377C269.765 9.05972 269.865 9.14589 269.987 9.19229C270.11 9.2387 270.246 9.2619 270.395 9.2619C270.508 9.2619 270.61 9.25361 270.703 9.23704C270.799 9.22047 270.872 9.20555 270.922 9.19229L271.225 10.5993C271.129 10.6324 270.992 10.6689 270.813 10.7086C270.637 10.7484 270.422 10.7716 270.166 10.7782C269.716 10.7915 269.31 10.7235 268.948 10.5744C268.587 10.4219 268.3 10.1866 268.088 9.86843C267.879 9.55025 267.777 9.15252 267.78 8.67525V1.20792ZM277.458 7.46218V3.03746H279.258V10.6738H277.513V9.31658H277.434C277.261 9.74414 276.978 10.0938 276.583 10.3656C276.192 10.6374 275.71 10.7733 275.137 10.7733C274.636 10.7733 274.194 10.6622 273.809 10.4402C273.428 10.2148 273.13 9.88832 272.914 9.46076C272.699 9.02989 272.591 8.50953 272.591 7.89968V3.03746H274.391V7.62127C274.391 8.10517 274.524 8.48964 274.789 8.77468C275.054 9.05972 275.402 9.20224 275.833 9.20224C276.098 9.20224 276.355 9.13761 276.603 9.00835C276.852 8.87908 277.056 8.68685 277.215 8.43164C277.377 8.17312 277.458 7.84996 277.458 7.46218ZM281.109 10.6738V3.03746H282.854V4.31019H282.933C283.073 3.86938 283.311 3.52965 283.649 3.29102C283.991 3.04906 284.38 2.92809 284.818 2.92809C284.917 2.92809 285.028 2.93306 285.151 2.943C285.277 2.94963 285.381 2.96123 285.464 2.97781V4.63334C285.388 4.60683 285.267 4.58363 285.101 4.56374C284.939 4.54054 284.781 4.52894 284.629 4.52894C284.301 4.52894 284.006 4.6002 283.744 4.74272C283.485 4.88192 283.281 5.07582 283.132 5.3244C282.983 5.57298 282.909 5.85967 282.909 6.18448V10.6738H281.109ZM289.726 10.823C288.96 10.823 288.299 10.6639 287.742 10.3457C287.189 10.0242 286.763 9.57013 286.464 8.98349C286.166 8.39352 286.017 7.69916 286.017 6.90039C286.017 6.11488 286.166 5.42549 286.464 4.83221C286.766 4.23562 287.187 3.7716 287.727 3.44016C288.267 3.10541 288.902 2.93803 289.631 2.93803C290.102 2.93803 290.546 3.01426 290.964 3.16673C291.385 3.31587 291.756 3.54788 292.077 3.86275C292.402 4.17762 292.657 4.57866 292.843 5.06587C293.029 5.54978 293.121 6.12648 293.121 6.79599V7.34783H286.862V6.13477H291.396C291.393 5.79007 291.318 5.48349 291.173 5.21502C291.027 4.94324 290.823 4.72946 290.561 4.57369C290.303 4.41791 290.001 4.34002 289.656 4.34002C289.288 4.34002 288.965 4.42951 288.687 4.60849C288.408 4.78415 288.191 5.01616 288.035 5.30451C287.883 5.58955 287.805 5.90276 287.802 6.24414V7.30309C287.802 7.74722 287.883 8.12837 288.045 8.44656C288.208 8.76142 288.435 9.00337 288.727 9.17241C289.018 9.33813 289.36 9.42099 289.751 9.42099C290.013 9.42099 290.249 9.38453 290.462 9.31161C290.674 9.23538 290.858 9.12435 291.013 8.97852C291.169 8.83268 291.287 8.65205 291.366 8.43661L293.047 8.62553C292.941 9.06966 292.739 9.45745 292.44 9.78888C292.145 10.117 291.767 10.3722 291.307 10.5545C290.846 10.7335 290.319 10.823 289.726 10.823ZM301.646 10.6738H298.196V0.49201H301.716C302.727 0.49201 303.595 0.695845 304.321 1.10352C305.05 1.50787 305.61 2.08955 306.002 2.84854C306.393 3.60754 306.588 4.51568 306.588 5.57298C306.588 6.63358 306.391 7.54504 305.997 8.30735C305.605 9.06966 305.04 9.65465 304.301 10.0623C303.565 10.47 302.681 10.6738 301.646 10.6738ZM300.041 9.07795H301.557C302.266 9.07795 302.858 8.94869 303.332 8.69016C303.806 8.42833 304.162 8.03888 304.401 7.52184C304.639 7.00148 304.759 6.35186 304.759 5.57298C304.759 4.79409 304.639 4.14779 304.401 3.63406C304.162 3.11701 303.809 2.73088 303.342 2.47567C302.878 2.21715 302.301 2.08789 301.612 2.08789H300.041V9.07795ZM308.261 10.6738V3.03746H310.061V10.6738H308.261ZM309.166 1.95366C308.881 1.95366 308.636 1.8592 308.43 1.67028C308.225 1.47804 308.122 1.24769 308.122 0.979225C308.122 0.707445 308.225 0.477095 308.43 0.288174C308.636 0.0959394 308.881 -0.00017786 309.166 -0.00017786C309.454 -0.00017786 309.7 0.0959394 309.902 0.288174C310.107 0.477095 310.21 0.707445 310.21 0.979225C310.21 1.24769 310.107 1.47804 309.902 1.67028C309.7 1.8592 309.454 1.95366 309.166 1.95366ZM314.109 10.8279C313.625 10.8279 313.189 10.7418 312.801 10.5694C312.417 10.3938 312.112 10.1352 311.887 9.79386C311.665 9.45247 311.554 9.03155 311.554 8.53107C311.554 8.1002 311.633 7.7439 311.792 7.46218C311.951 7.18046 312.168 6.95508 312.443 6.78604C312.719 6.61701 313.028 6.48941 313.373 6.40323C313.721 6.31374 314.081 6.24911 314.452 6.20934C314.899 6.16294 315.262 6.12151 315.541 6.08505C315.819 6.04528 316.021 5.98562 316.147 5.90607C316.277 5.82321 316.341 5.69561 316.341 5.52326V5.49343C316.341 5.1189 316.23 4.82889 316.008 4.6234C315.786 4.41791 315.466 4.31516 315.049 4.31516C314.608 4.31516 314.258 4.41128 314 4.60352C313.744 4.79575 313.572 5.02279 313.483 5.28462L311.802 5.04599C311.935 4.58197 312.153 4.19419 312.458 3.88263C312.763 3.56777 313.136 3.33245 313.577 3.17667C314.018 3.01758 314.505 2.93803 315.039 2.93803C315.407 2.93803 315.773 2.98112 316.137 3.06729C316.502 3.15347 316.835 3.29599 317.137 3.49485C317.438 3.6904 317.68 3.95721 317.863 4.29528C318.048 4.63334 318.141 5.05593 318.141 5.56303V10.6738H316.411V9.62482H316.351C316.242 9.83694 316.088 10.0358 315.889 10.2214C315.693 10.4037 315.446 10.5512 315.148 10.6639C314.853 10.7733 314.507 10.8279 314.109 10.8279ZM314.576 9.5055C314.938 9.5055 315.251 9.43424 315.516 9.29173C315.781 9.14589 315.985 8.95366 316.127 8.71502C316.273 8.47638 316.346 8.2162 316.346 7.93448V7.03462C316.29 7.08103 316.194 7.12411 316.058 7.16388C315.925 7.20366 315.776 7.23846 315.61 7.26829C315.445 7.29812 315.281 7.32463 315.118 7.34783C314.956 7.37103 314.815 7.39092 314.696 7.40749C314.427 7.44395 314.187 7.50361 313.975 7.58647C313.763 7.66933 313.595 7.78533 313.473 7.93448C313.35 8.08031 313.289 8.26924 313.289 8.50124C313.289 8.83268 313.41 9.08292 313.652 9.25195C313.894 9.42099 314.202 9.5055 314.576 9.5055ZM323.272 13.6966C322.625 13.6966 322.07 13.6087 321.606 13.4331C321.142 13.2607 320.769 13.0287 320.488 12.737C320.206 12.4454 320.01 12.1222 319.901 11.7676L321.522 11.3748C321.595 11.524 321.701 11.6715 321.84 11.8173C321.979 11.9664 322.166 12.0891 322.402 12.1852C322.64 12.2846 322.94 12.3343 323.301 12.3343C323.812 12.3343 324.234 12.21 324.569 11.9615C324.904 11.7162 325.071 11.3118 325.071 10.7484V9.30167H324.982C324.889 9.48728 324.753 9.67785 324.574 9.8734C324.399 10.069 324.165 10.233 323.873 10.3656C323.585 10.4982 323.222 10.5645 322.784 10.5645C322.198 10.5645 321.666 10.4269 321.189 10.1518C320.715 9.8734 320.337 9.4591 320.055 8.90891C319.777 8.35541 319.637 7.6627 319.637 6.83079C319.637 5.99225 319.777 5.28462 320.055 4.70792C320.337 4.1279 320.716 3.68874 321.193 3.39045C321.671 3.08884 322.203 2.93803 322.789 2.93803C323.237 2.93803 323.605 3.01426 323.893 3.16673C324.185 3.31587 324.417 3.49651 324.589 3.70863C324.761 3.91744 324.892 4.11464 324.982 4.30025H325.081V3.03746H326.856V10.7981C326.856 11.4511 326.7 11.9913 326.389 12.4189C326.077 12.8464 325.651 13.1663 325.111 13.3784C324.571 13.5905 323.958 13.6966 323.272 13.6966ZM323.287 9.15252C323.668 9.15252 323.992 9.05972 324.261 8.87411C324.529 8.68851 324.733 8.4217 324.872 8.07369C325.012 7.72567 325.081 7.30806 325.081 6.82085C325.081 6.34026 325.012 5.91933 324.872 5.55806C324.737 5.19679 324.534 4.91673 324.266 4.71786C324.001 4.51568 323.674 4.41459 323.287 4.41459C322.885 4.41459 322.551 4.519 322.282 4.72781C322.014 4.93661 321.812 5.22331 321.676 5.58789C321.54 5.94916 321.472 6.36014 321.472 6.82085C321.472 7.28817 321.54 7.6975 321.676 8.04883C321.815 8.39684 322.019 8.66862 322.287 8.86417C322.559 9.0564 322.892 9.15252 323.287 9.15252ZM328.701 10.6738V3.03746H330.446V4.31019H330.525C330.664 3.86938 330.903 3.52965 331.241 3.29102C331.582 3.04906 331.972 2.92809 332.409 2.92809C332.509 2.92809 332.62 2.93306 332.742 2.943C332.868 2.94963 332.973 2.96123 333.056 2.97781V4.63334C332.979 4.60683 332.859 4.58363 332.693 4.56374C332.53 4.54054 332.373 4.52894 332.22 4.52894C331.892 4.52894 331.597 4.6002 331.336 4.74272C331.077 4.88192 330.873 5.07582 330.724 5.3244C330.575 5.57298 330.5 5.85967 330.5 6.18448V10.6738H328.701ZM336.312 10.8279C335.828 10.8279 335.392 10.7418 335.005 10.5694C334.62 10.3938 334.315 10.1352 334.09 9.79386C333.868 9.45247 333.757 9.03155 333.757 8.53107C333.757 8.1002 333.836 7.7439 333.995 7.46218C334.154 7.18046 334.372 6.95508 334.647 6.78604C334.922 6.61701 335.232 6.48941 335.576 6.40323C335.924 6.31374 336.284 6.24911 336.655 6.20934C337.103 6.16294 337.466 6.12151 337.744 6.08505C338.022 6.04528 338.225 5.98562 338.35 5.90607C338.48 5.82321 338.544 5.69561 338.544 5.52326V5.49343C338.544 5.1189 338.433 4.82889 338.211 4.6234C337.989 4.41791 337.669 4.31516 337.252 4.31516C336.811 4.31516 336.461 4.41128 336.203 4.60352C335.948 4.79575 335.775 5.02279 335.686 5.28462L334.005 5.04599C334.138 4.58197 334.357 4.19419 334.662 3.88263C334.966 3.56777 335.339 3.33245 335.78 3.17667C336.221 3.01758 336.708 2.93803 337.242 2.93803C337.61 2.93803 337.976 2.98112 338.341 3.06729C338.705 3.15347 339.038 3.29599 339.34 3.49485C339.641 3.6904 339.883 3.95721 340.066 4.29528C340.251 4.63334 340.344 5.05593 340.344 5.56303V10.6738H338.614V9.62482H338.554C338.445 9.83694 338.291 10.0358 338.092 10.2214C337.896 10.4037 337.649 10.5512 337.351 10.6639C337.056 10.7733 336.71 10.8279 336.312 10.8279ZM336.779 9.5055C337.141 9.5055 337.454 9.43424 337.719 9.29173C337.984 9.14589 338.188 8.95366 338.331 8.71502C338.476 8.47638 338.549 8.2162 338.549 7.93448V7.03462C338.493 7.08103 338.397 7.12411 338.261 7.16388C338.128 7.20366 337.979 7.23846 337.814 7.26829C337.648 7.29812 337.484 7.32463 337.321 7.34783C337.159 7.37103 337.018 7.39092 336.899 7.40749C336.63 7.44395 336.39 7.50361 336.178 7.58647C335.966 7.66933 335.798 7.78533 335.676 7.93448C335.553 8.08031 335.492 8.26924 335.492 8.50124C335.492 8.83268 335.613 9.08292 335.855 9.25195C336.097 9.42099 336.405 9.5055 336.779 9.5055ZM342.154 10.6738V3.03746H343.874V4.33505H343.963C344.122 3.89755 344.386 3.55617 344.754 3.3109C345.122 3.06232 345.561 2.93803 346.071 2.93803C346.588 2.93803 347.024 3.06398 347.379 3.31587C347.737 3.56445 347.989 3.90418 348.135 4.33505H348.214C348.383 3.91081 348.668 3.57274 349.069 3.32085C349.474 3.06564 349.952 2.93803 350.506 2.93803C351.209 2.93803 351.782 3.1601 352.226 3.60423C352.67 4.04835 352.892 4.69632 352.892 5.54812V10.6738H351.088V5.82653C351.088 5.35257 350.962 5.00621 350.71 4.78746C350.458 4.5654 350.15 4.45437 349.785 4.45437C349.351 4.45437 349.011 4.59026 348.766 4.86204C348.524 5.1305 348.403 5.48017 348.403 5.91104V10.6738H346.638V5.75195C346.638 5.35754 346.519 5.04267 346.28 4.80735C346.045 4.57203 345.737 4.45437 345.355 4.45437C345.097 4.45437 344.862 4.52066 344.649 4.65323C344.437 4.78249 344.268 4.96644 344.142 5.20508C344.016 5.4404 343.953 5.71549 343.953 6.03036V10.6738H342.154Z" fill="black"/>
</svg>
